<svg width="30" height="30" viewBox="0 0 30 30" fill="none" xmlns="http://www.w3.org/2000/svg">
    <g clip-path="url(#clip0)">
        <path d="M23.3229 1.07142C23.3229 1.07142 23.3229 1.07142 23.3229 1.07142L23.3229 4.18393L21.68 4.18393L21.68 1.07142C21.68 0.617741 22.0478 0.249976 22.5015 0.249976C22.9552 0.249976 23.3229 0.617739 23.3229 1.07142ZM8.3229 1.07142L8.3229 4.18396L6.68 4.18396L6.68 1.07142C6.68 0.617741 7.04777 0.249976 7.50145 0.249976C7.95513 0.249976 8.3229 0.617741 8.3229 1.07142Z" fill="white" stroke="black" stroke-width="0.5"/>
        <path d="M23.5714 3.21436H26.7857C28.5609 3.21436 30 4.65344 30 6.42864V26.7858C30 28.561 28.5609 30.0001 26.7857 30.0001H3.21428C1.43908 30.0001 0 28.561 0 26.7858V6.42864C0 4.65344 1.43908 3.21436 3.21428 3.21436H6.42857H8.5714H21.4285H23.5714Z" fill="black"/>
        <path d="M6.67857 7.50001V5.60718H8.32141L8.32146 7.50001C8.32146 7.50001 8.32146 7.50002 8.32146 7.50002C8.32146 7.9537 7.9537 8.32146 7.50001 8.32146C7.04633 8.32146 6.67857 7.9537 6.67857 7.50001ZM21.6786 7.50001V5.60718H23.3215V7.50001C23.3215 7.9537 22.9537 8.32146 22.5 8.32146C22.0464 8.32146 21.6786 7.9537 21.6786 7.50001Z" fill="white" stroke="white" stroke-width="0.5"/>
        <path d="M8.5714 15H6.42856C5.8368 15 5.35711 15.4797 5.35711 16.0715C5.35711 16.6632 5.8368 17.1429 6.42856 17.1429H8.5714C9.16315 17.1429 9.64285 16.6632 9.64285 16.0715C9.64285 15.4797 9.16315 15 8.5714 15Z" fill="white"/>
        <path d="M16.0714 15H13.9286C13.3368 15 12.8571 15.4797 12.8571 16.0715C12.8571 16.6632 13.3368 17.1429 13.9286 17.1429H16.0714C16.6632 17.1429 17.1429 16.6632 17.1429 16.0715C17.1429 15.4797 16.6632 15 16.0714 15Z" fill="white"/>
        <path d="M23.5714 15H21.4286C20.8368 15 20.3571 15.4797 20.3571 16.0715C20.3571 16.6632 20.8368 17.1429 21.4286 17.1429H23.5714C24.1632 17.1429 24.6429 16.6632 24.6429 16.0715C24.6428 15.4797 24.1631 15 23.5714 15Z" fill="white"/>
        <path d="M8.5714 19.2858H6.42856C5.8368 19.2858 5.35711 19.7655 5.35711 20.3572C5.35711 20.949 5.8368 21.4287 6.42856 21.4287H8.5714C9.16315 21.4287 9.64285 20.949 9.64285 20.3572C9.64285 19.7655 9.16315 19.2858 8.5714 19.2858Z" fill="white"/>
        <path d="M16.0714 19.2858H13.9286C13.3368 19.2858 12.8571 19.7655 12.8571 20.3572C12.8571 20.949 13.3368 21.4287 13.9286 21.4287H16.0714C16.6632 21.4287 17.1429 20.949 17.1429 20.3572C17.1429 19.7655 16.6632 19.2858 16.0714 19.2858Z" fill="white"/>
        <path d="M23.5714 19.2858H21.4286C20.8368 19.2858 20.3571 19.7655 20.3571 20.3572C20.3571 20.949 20.8368 21.4287 21.4286 21.4287H23.5714C24.1632 21.4287 24.6429 20.949 24.6429 20.3572C24.6428 19.7655 24.1631 19.2858 23.5714 19.2858Z" fill="white"/>
        <path d="M8.5714 23.5714H6.42856C5.8368 23.5714 5.35711 24.0511 5.35711 24.6429C5.35711 25.2346 5.8368 25.7142 6.42856 25.7142H8.5714C9.16315 25.7142 9.64285 25.2345 9.64285 24.6428C9.64285 24.051 9.16315 23.5714 8.5714 23.5714Z" fill="white"/>
        <path d="M16.0714 23.5714H13.9286C13.3368 23.5714 12.8571 24.0511 12.8571 24.6429C12.8571 25.2346 13.3368 25.7143 13.9286 25.7143H16.0714C16.6632 25.7143 17.1429 25.2346 17.1429 24.6429C17.1429 24.0511 16.6632 23.5714 16.0714 23.5714Z" fill="white"/>
        <path d="M23.5714 23.5714H21.4286C20.8368 23.5714 20.3571 24.0511 20.3571 24.6429C20.3571 25.2346 20.8368 25.7143 21.4286 25.7143H23.5714C24.1632 25.7143 24.6429 25.2346 24.6429 24.6429C24.6429 24.0511 24.1631 23.5714 23.5714 23.5714Z" fill="white"/>
    </g>
    <defs>
        <clipPath id="clip0">
            <rect width="30" height="30" fill="white"/>
        </clipPath>
    </defs>
</svg>
