<svg width="30" height="30" viewBox="0 0 30 30" fill="none" xmlns="http://www.w3.org/2000/svg">
    <path d="M26.7857 3.21428H23.5714V1.07145C23.5714 0.479694 23.0917 0 22.5 0C21.9082 0 21.4285 0.479694 21.4285 1.07145V3.21428H8.5714V1.07145C8.5714 0.479694 8.09171 0 7.50002 0C6.90832 0 6.42857 0.479694 6.42857 1.07145V3.21428H3.21428C1.43908 3.21428 0 4.65337 0 6.42857V26.7857C0 28.5609 1.43908 30 3.21428 30H26.7857C28.5609 30 30 28.5609 30 26.7857V6.42857C30 4.65337 28.5609 3.21428 26.7857 3.21428ZM27.8571 26.7857C27.8571 27.3775 27.3774 27.8572 26.7857 27.8572H3.21428C2.62253 27.8572 2.14283 27.3775 2.14283 26.7857V12.8571H27.8571V26.7857ZM27.8571 10.7143H2.14283V6.42857C2.14283 5.83681 2.62253 5.35712 3.21428 5.35712H6.42857V7.49995C6.42857 8.09171 6.90826 8.5714 7.50002 8.5714C8.09177 8.5714 8.57146 8.09171 8.57146 7.49995V5.35712H21.4286V7.49995C21.4286 8.09171 21.9083 8.5714 22.5 8.5714C23.0918 8.5714 23.5715 8.09171 23.5715 7.49995V5.35712H26.7858C27.3775 5.35712 27.8572 5.83681 27.8572 6.42857V10.7143H27.8571Z" fill="black"/>
    <path d="M8.5714 15H6.42856C5.8368 15 5.35711 15.4797 5.35711 16.0715C5.35711 16.6632 5.8368 17.1429 6.42856 17.1429H8.5714C9.16315 17.1429 9.64285 16.6632 9.64285 16.0715C9.64285 15.4797 9.16315 15 8.5714 15Z" fill="black"/>
    <path d="M16.0714 15H13.9286C13.3368 15 12.8571 15.4797 12.8571 16.0715C12.8571 16.6632 13.3368 17.1429 13.9286 17.1429H16.0714C16.6632 17.1429 17.1429 16.6632 17.1429 16.0715C17.1429 15.4797 16.6632 15 16.0714 15Z" fill="black"/>
    <path d="M23.5714 15H21.4286C20.8368 15 20.3571 15.4797 20.3571 16.0715C20.3571 16.6632 20.8368 17.1429 21.4286 17.1429H23.5714C24.1632 17.1429 24.6429 16.6632 24.6429 16.0715C24.6428 15.4797 24.1631 15 23.5714 15Z" fill="black"/>
    <path d="M8.5714 19.2858H6.42856C5.8368 19.2858 5.35711 19.7655 5.35711 20.3572C5.35711 20.949 5.8368 21.4287 6.42856 21.4287H8.5714C9.16315 21.4287 9.64285 20.949 9.64285 20.3572C9.64285 19.7655 9.16315 19.2858 8.5714 19.2858Z" fill="black"/>
    <path d="M16.0714 19.2858H13.9286C13.3368 19.2858 12.8571 19.7655 12.8571 20.3572C12.8571 20.949 13.3368 21.4287 13.9286 21.4287H16.0714C16.6632 21.4287 17.1429 20.949 17.1429 20.3572C17.1429 19.7655 16.6632 19.2858 16.0714 19.2858Z" fill="black"/>
    <path d="M23.5714 19.2858H21.4286C20.8368 19.2858 20.3571 19.7655 20.3571 20.3572C20.3571 20.949 20.8368 21.4287 21.4286 21.4287H23.5714C24.1632 21.4287 24.6429 20.949 24.6429 20.3572C24.6428 19.7655 24.1631 19.2858 23.5714 19.2858Z" fill="black"/>
    <path d="M8.5714 23.5714H6.42856C5.8368 23.5714 5.35711 24.0511 5.35711 24.6429C5.35711 25.2346 5.8368 25.7142 6.42856 25.7142H8.5714C9.16315 25.7142 9.64285 25.2345 9.64285 24.6428C9.64285 24.051 9.16315 23.5714 8.5714 23.5714Z" fill="black"/>
    <path d="M16.0714 23.5714H13.9286C13.3368 23.5714 12.8571 24.0511 12.8571 24.6429C12.8571 25.2346 13.3368 25.7143 13.9286 25.7143H16.0714C16.6632 25.7143 17.1429 25.2346 17.1429 24.6429C17.1429 24.0511 16.6632 23.5714 16.0714 23.5714Z" fill="black"/>
    <path d="M23.5714 23.5714H21.4286C20.8368 23.5714 20.3571 24.0511 20.3571 24.6429C20.3571 25.2346 20.8368 25.7143 21.4286 25.7143H23.5714C24.1632 25.7143 24.6429 25.2346 24.6429 24.6429C24.6429 24.0511 24.1631 23.5714 23.5714 23.5714Z" fill="black"/>
</svg>
