<svg width="30" height="30" viewBox="0 0 30 30" fill="none" xmlns="http://www.w3.org/2000/svg">
    <g clip-path="url(#clip0)">
        <path d="M29.25 12.99L29.2477 12.9877L17.01 0.750505C16.4884 0.228654 15.7949 -0.0585938 15.0572 -0.0585938C14.3195 -0.0585938 13.626 0.228654 13.1042 0.750505L0.872927 12.9815C0.868807 12.9856 0.864458 12.99 0.860567 12.9941C-0.210602 14.0715 -0.208771 15.8194 0.865832 16.894C1.35678 17.3852 2.00498 17.6695 2.69826 17.6995C2.72665 17.7022 2.75503 17.7036 2.78364 17.7036H3.27116V26.7092C3.27116 28.4915 4.72136 29.9415 6.50366 29.9415H11.2914C11.7769 29.9415 12.1703 29.5478 12.1703 29.0626V22.002C12.1703 21.1888 12.832 20.5273 13.6452 20.5273H16.4692C17.2824 20.5273 17.9439 21.1888 17.9439 22.002V29.0626C17.9439 29.5478 18.3373 29.9415 18.8228 29.9415H23.6106C25.3931 29.9415 26.8431 28.4915 26.8431 26.7092V17.7036H27.2953C28.0328 17.7036 28.7263 17.4163 29.2484 16.8943C30.3241 15.8181 30.3246 14.0669 29.25 12.99Z" fill="black"/>
    </g>
    <defs>
        <clipPath id="clip0">
            <rect width="30" height="30" fill="white"/>
        </clipPath>
    </defs>
</svg>
