<svg width="30" height="30" viewBox="0 0 30 30" fill="none" xmlns="http://www.w3.org/2000/svg">
    <g clip-path="url(#clip0)">
        <path d="M29.25 12.99C29.2491 12.9893 29.2484 12.9884 29.2477 12.9877L17.01 0.750505C16.4884 0.228654 15.7949 -0.0585938 15.0572 -0.0585938C14.3195 -0.0585938 13.626 0.228654 13.1042 0.750505L0.872927 12.9815C0.868807 12.9856 0.864458 12.99 0.860567 12.9941C-0.210602 14.0715 -0.208771 15.8194 0.865832 16.894C1.35678 17.3852 2.00498 17.6695 2.69826 17.6995C2.72665 17.7022 2.75503 17.7036 2.78364 17.7036H3.27116V26.7092C3.27116 28.4915 4.72135 29.9415 6.50366 29.9415H11.2914C11.7769 29.9415 12.1703 29.5478 12.1703 29.0626V22.002C12.1703 21.1888 12.832 20.5273 13.6452 20.5273H16.4692C17.2824 20.5273 17.9439 21.1888 17.9439 22.002V29.0626C17.9439 29.5478 18.3373 29.9415 18.8228 29.9415H23.6106C25.3931 29.9415 26.8431 28.4915 26.8431 26.7092V17.7036H27.2953C28.0328 17.7036 28.7263 17.4163 29.2484 16.8943C30.3241 15.8181 30.3246 14.0669 29.25 12.99ZM28.0053 15.6514C27.8156 15.8412 27.5634 15.9458 27.2953 15.9458H25.9642C25.4787 15.9458 25.0852 16.3392 25.0852 16.8247V26.7092C25.0852 27.5222 24.4238 28.1836 23.6106 28.1836H19.7017V22.002C19.7017 20.2197 18.2517 18.7695 16.4692 18.7695H13.6452C11.8627 18.7695 10.4125 20.2197 10.4125 22.002V28.1836H6.50366C5.69067 28.1836 5.02897 27.5222 5.02897 26.7092V16.8247C5.02897 16.3392 4.63552 15.9458 4.15006 15.9458H2.84177C2.82804 15.9449 2.81454 15.9442 2.80057 15.9439C2.53873 15.9394 2.29314 15.8355 2.10912 15.6512C1.71773 15.2598 1.71773 14.6228 2.10912 14.2312C2.10935 14.2312 2.10935 14.231 2.10958 14.2308L2.11027 14.2301L14.3475 1.99334C14.537 1.80359 14.789 1.69922 15.0572 1.69922C15.3252 1.69922 15.5772 1.80359 15.767 1.99334L28.0014 14.2276C28.0033 14.2294 28.0053 14.2312 28.0072 14.233C28.3965 14.6251 28.3958 15.2607 28.0053 15.6514Z" fill="black"/>
    </g>
    <defs>
        <clipPath id="clip0">
            <rect width="30" height="30" fill="white"/>
        </clipPath>
    </defs>
</svg>
