<svg width="30" height="30" viewBox="0 0 30 30" fill="none" xmlns="http://www.w3.org/2000/svg">
    <path d="M27.4113 25.3038L25.2637 21.7263C24.2737 20.075 23.75 18.185 23.75 16.2588V13.125C23.75 8.30125 19.8237 4.375 15 4.375C10.1763 4.375 6.25002 8.30125 6.25002 13.125V16.2588C6.25002 18.185 5.72625 20.075 4.73625 21.7263L2.58873 25.3038C2.47248 25.4962 2.46996 25.7375 2.58 25.9325C2.69127 26.1288 2.89998 26.25 3.12498 26.25H26.875C27.1 26.25 27.3087 26.1288 27.4199 25.9325C27.53 25.7375 27.5275 25.4962 27.4113 25.3038Z" fill="black"/>
    <path d="M12.5 2.50002C12.5 1.12125 13.6212 0 15 0C16.3788 0 17.5 1.12125 17.5 2.50002V4.99998C17.5 5.34498 17.22 5.625 16.875 5.625C16.53 5.625 16.25 5.34498 16.25 5.00004L13.75 4.99998C13.75 5.34498 13.47 5.625 13.125 5.625C12.78 5.625 12.5 5.34498 12.5 5.00004V2.50002Z" fill="black"/>
    <path d="M16.8488 25.085C17.1475 24.9137 17.5287 25.0112 17.705 25.3087C17.9813 25.7812 18.1275 26.3225 18.1275 26.875C18.125 28.5987 16.7238 30 15 30C13.2762 30 11.875 28.5987 11.875 26.875C11.875 26.3225 12.0212 25.7812 12.2975 25.3087C12.4724 25.0112 12.8525 24.9137 13.1537 25.085C13.4513 25.2599 13.5512 25.6424 13.3775 25.9412H16.625C16.45 25.6437 16.55 25.26 16.8488 25.085Z" fill="black"/>
</svg>
