<svg width="30" height="30" viewBox="0 0 30 30" fill="none" xmlns="http://www.w3.org/2000/svg">
    <path d="M27.4113 25.3038L25.2637 21.7263C24.2737 20.075 23.75 18.185 23.75 16.2588V13.125C23.75 8.30125 19.8237 4.375 15 4.375C10.1763 4.375 6.25002 8.30125 6.25002 13.125V16.2588C6.25002 18.185 5.72625 20.075 4.73625 21.7263L2.58873 25.3038C2.47248 25.4962 2.46996 25.7375 2.58 25.9325C2.69127 26.1287 2.89998 26.25 3.12498 26.25H26.875C27.1 26.25 27.3087 26.1288 27.4199 25.9325C27.53 25.7375 27.5275 25.4962 27.4113 25.3038ZM4.22877 25L5.80752 22.3687C6.915 20.5237 7.5 18.4113 7.5 16.2588V13.125C7.5 8.98873 10.8637 5.62498 15 5.62498C19.1362 5.62498 22.5 8.98873 22.5 13.125V16.2588C22.5 18.4113 23.085 20.5237 24.1912 22.3687L25.7712 25H4.22877Z" fill="black"/>
    <path d="M15 0C13.6212 0 12.5 1.12125 12.5 2.50002V5.00004C12.5 5.34498 12.78 5.625 13.125 5.625C13.47 5.625 13.75 5.34498 13.75 4.99998V2.50002C13.75 1.81002 14.31 1.25004 15 1.25004C15.69 1.25004 16.25 1.81002 16.25 2.50002V5.00004C16.25 5.34498 16.53 5.625 16.875 5.625C17.22 5.625 17.5 5.34498 17.5 4.99998V2.50002C17.5 1.12125 16.3788 0 15 0Z" fill="black"/>
    <path d="M17.705 25.3087C17.5287 25.0112 17.1475 24.9137 16.8488 25.085C16.55 25.26 16.45 25.6437 16.625 25.9412C16.7875 26.2175 16.8762 26.5487 16.8762 26.8749C16.8762 27.9087 16.035 28.7499 15.0012 28.7499C13.9675 28.7499 13.1262 27.9087 13.1262 26.8749C13.1262 26.5487 13.215 26.2175 13.3775 25.9412C13.5512 25.6424 13.4513 25.2599 13.1537 25.085C12.8525 24.9137 12.4724 25.0112 12.2975 25.3087C12.0212 25.7812 11.875 26.3225 11.875 26.875C11.875 28.5987 13.2762 30 15 30C16.7238 30 18.125 28.5987 18.1275 26.875C18.1275 26.3225 17.9813 25.7812 17.705 25.3087Z" fill="black"/>
</svg>
