<svg width="30" height="30" viewBox="0 0 30 30" fill="none" xmlns="http://www.w3.org/2000/svg">
    <path d="M15 0C6.71582 0 0 6.71582 0 15C0 23.2842 6.71582 30 15 30C15.4519 30 15.9021 29.9797 16.3501 29.9395C16.7666 29.9021 17.1794 29.845 17.5891 29.7734L17.7466 29.7456C25.363 28.3242 30.644 21.3362 29.9316 13.6208C29.2192 5.90552 22.748 0.00244141 15 0ZM25 24.7891V21.5C24.9958 17.9119 22.0881 15.0042 18.5 15H11.5C7.91187 15.0042 5.00415 17.9119 5 21.5V24.7886C-0.385254 19.2922 -0.325195 10.48 5.13428 5.05737C10.5938 -0.36499 19.4062 -0.36499 24.8657 5.05737C30.3252 10.48 30.3853 19.2927 25 24.7891Z" fill="black"/>
    <path d="M15 4C12.2385 4 10 6.23853 10 9C10 11.7615 12.2385 14 15 14C17.7615 14 20 11.7615 20 9C19.9971 6.23975 17.7603 4.00293 15 4Z" fill="black"/>
</svg>
