<svg xmlns="http://www.w3.org/2000/svg" xmlns:xlink="http://www.w3.org/1999/xlink" viewBox="0 0 651.27 367.54"><defs><clipPath id="clip-path" transform="translate(0 -16.85)"><polygon points="0.34 310 0 190.47 211.96 68.09 212.3 187.62 0.34 310" style="fill:none"/></clipPath><clipPath id="clip-path-2" transform="translate(0 -16.85)"><polygon points="6.34 313 6 193.47 217.96 71.09 218.3 190.62 6.34 313" style="fill:none"/></clipPath><clipPath id="clip-path-3" transform="translate(0 -16.85)"><polygon points="12.34 316 12 196.47 223.96 74.09 224.3 193.62 12.34 316" style="fill:none"/></clipPath><clipPath id="clip-path-4" transform="translate(0 -16.85)"><polygon points="18.34 319 18 199.47 229.96 77.09 230.3 196.62 18.34 319" style="fill:none"/></clipPath><clipPath id="clip-path-5" transform="translate(0 -16.85)"><polygon points="24.34 322 24 202.47 235.96 80.09 236.3 199.62 24.34 322" style="fill:none"/></clipPath><clipPath id="clip-path-6" transform="translate(0 -16.85)"><polygon points="128.31 400.69 22.03 338.94 574.45 20 680.72 81.76 128.31 400.69" style="fill:none"/></clipPath><clipPath id="clip-path-7" transform="translate(0 -16.85)"><polygon points="128.31 395.69 22.03 333.94 574.45 15 680.72 76.76 128.31 395.69" style="fill:none"/></clipPath><clipPath id="clip-path-8" transform="translate(0 -16.85)"><polygon points="128.31 390.69 22.03 328.94 574.45 10 680.72 71.76 128.31 390.69" style="fill:none"/></clipPath><clipPath id="clip-path-9" transform="translate(0 -16.85)"><polygon points="128.31 385.69 22.03 323.94 574.45 5 680.72 66.76 128.31 385.69" style="fill:none"/></clipPath><clipPath id="clip-path-10" transform="translate(0 -16.85)"><polygon points="128.31 380.69 22.03 318.94 574.45 0 680.72 61.76 128.31 380.69" style="fill:none"/></clipPath></defs><title>LOGO</title><g id="Layer_2" data-name="Layer 2"><g id="Logo"><g style="isolation:isolate"><g style="clip-path:url(#clip-path)"><polyline points="74.63 133.8 2.85 175.24 3.17 288.25 21.52 277.65 21.4 234.99 73.17 205.1 73.13 189.54 21.36 219.43 21.24 180.2 74.67 149.35 74.63 133.8" style="fill:#21e0a3"/><path d="M3.17,305.1l-.32-113,71.78-41.44,0,15.55L21.24,197.05l.12,39.24,51.77-29.9,0,15.56L21.4,251.85l.12,42.66L3.17,305.1M77.46,145.75,0,190.47.34,310l24-13.87-.12-42.66L76,223.57,76,201.5,24.18,231.39l-.09-32.72,53.43-30.85-.06-22.07" transform="translate(0 -16.85)" style="fill:#022b3a"/><polyline points="111.04 112.78 92.69 123.37 93.01 236.38 111.36 225.79 111.04 112.78" style="fill:#21e0a3"/><path d="M93,253.23l-.32-113L111,129.63l.32,113L93,253.23m20.85-128.5-24,13.86.34,119.54,24-13.87-.34-119.53" transform="translate(0 -16.85)" style="fill:#022b3a"/><polyline points="209.14 56.14 125.37 104.5 125.41 120.06 158.09 101.19 158.36 198.65 176.71 188.06 176.43 90.6 209.18 71.69 209.14 56.14" style="fill:#21e0a3"/><path d="M125.41,136.91l0-15.55L209.14,73l0,15.55-32.75,18.91.28,97.46L158.36,215.5,158.09,118l-32.68,18.87M212,68.09l-89.44,51.64.06,22.08,32.67-18.87.28,97.46,24-13.87-.28-97.46L212,90.16,212,68.09" transform="translate(0 -16.85)" style="fill:#022b3a"/></g></g><g style="isolation:isolate"><g style="clip-path:url(#clip-path-2)"><polyline points="80.63 136.8 8.85 178.24 9.17 291.25 27.52 280.65 27.4 237.99 79.17 208.1 79.13 192.54 27.36 222.43 27.24 183.2 80.67 152.35 80.63 136.8" style="fill:#21e0a3"/><path d="M9.17,308.1l-.32-113,71.78-41.44,0,15.55L27.24,200.05l.12,39.24,51.77-29.9,0,15.56L27.4,254.85l.12,42.66L9.17,308.1M83.46,148.75,6,193.47,6.34,313l24-13.87-.12-42.66L82,226.57,82,204.5,30.18,234.39l-.09-32.72,53.43-30.85-.06-22.07" transform="translate(0 -16.85)" style="fill:#022b3a"/><polyline points="117.04 115.78 98.69 126.37 99.01 239.38 117.36 228.79 117.04 115.78" style="fill:#21e0a3"/><path d="M99,256.23l-.32-113L117,132.63l.32,113L99,256.23m20.85-128.5-24,13.86.34,119.54,24-13.87-.34-119.53" transform="translate(0 -16.85)" style="fill:#022b3a"/><polyline points="215.14 59.14 131.37 107.5 131.41 123.06 164.09 104.19 164.36 201.65 182.71 191.06 182.43 93.6 215.18 74.69 215.14 59.14" style="fill:#21e0a3"/><path d="M131.41,139.91l0-15.55L215.14,76l0,15.55-32.75,18.91.28,97.46L164.36,218.5,164.09,121l-32.68,18.87M218,71.09l-89.44,51.64.06,22.08,32.67-18.87.28,97.46,24-13.87-.28-97.46L218,93.16,218,71.09" transform="translate(0 -16.85)" style="fill:#022b3a"/></g></g><g style="isolation:isolate"><g style="clip-path:url(#clip-path-3)"><polyline points="86.63 139.8 14.85 181.24 15.17 294.25 33.52 283.65 33.4 240.99 85.17 211.1 85.13 195.54 33.35 225.43 33.24 186.2 86.67 155.35 86.63 139.8" style="fill:#21e0a3"/><path d="M15.17,311.1l-.32-113,71.78-41.44,0,15.55L33.24,203.05l.12,39.24,51.77-29.9,0,15.56L33.4,257.85l.12,42.66L15.17,311.1M89.46,151.75,12,196.47,12.34,316l24-13.87-.12-42.66L88,229.57,88,207.5,36.18,237.39l-.09-32.72,53.43-30.85-.06-22.07" transform="translate(0 -16.85)" style="fill:#022b3a"/><polyline points="123.04 118.78 104.69 129.37 105.01 242.38 123.36 231.79 123.04 118.78" style="fill:#21e0a3"/><path d="M105,259.23l-.32-113L123,135.63l.32,113L105,259.23m20.85-128.5-24,13.86.34,119.54,24-13.87-.34-119.53" transform="translate(0 -16.85)" style="fill:#022b3a"/><polyline points="221.14 62.14 137.37 110.5 137.41 126.06 170.09 107.19 170.36 204.65 188.71 194.06 188.43 96.6 221.18 77.69 221.14 62.14" style="fill:#21e0a3"/><path d="M137.41,142.91l0-15.55L221.14,79l0,15.55-32.75,18.91.28,97.46L170.36,221.5,170.09,124l-32.68,18.87M224,74.09l-89.44,51.64.06,22.08,32.67-18.87.28,97.46,24-13.87-.28-97.46L224,96.16,224,74.09" transform="translate(0 -16.85)" style="fill:#022b3a"/></g></g><g style="isolation:isolate"><g style="clip-path:url(#clip-path-4)"><polyline points="92.63 142.8 20.85 184.24 21.17 297.25 39.52 286.65 39.4 243.99 91.17 214.1 91.13 198.54 39.35 228.43 39.24 189.2 92.67 158.35 92.63 142.8" style="fill:#21e0a3"/><path d="M21.17,314.1l-.32-113,71.78-41.44,0,15.55L39.24,206.05l.12,39.24,51.77-29.9,0,15.56L39.4,260.85l.12,42.66L21.17,314.1M95.46,154.75,18,199.47,18.34,319l24-13.87-.12-42.66L94,232.57,94,210.5,42.18,240.39l-.09-32.72,53.43-30.85-.06-22.07" transform="translate(0 -16.85)" style="fill:#022b3a"/><polyline points="129.04 121.78 110.69 132.37 111.01 245.38 129.36 234.79 129.04 121.78" style="fill:#21e0a3"/><path d="M111,262.23l-.32-113L129,138.63l.32,113L111,262.23m20.85-128.5-24,13.86.34,119.54,24-13.87-.34-119.53" transform="translate(0 -16.85)" style="fill:#022b3a"/><polyline points="227.14 65.14 143.37 113.5 143.41 129.06 176.09 110.19 176.36 207.65 194.71 197.06 194.43 99.6 227.18 80.69 227.14 65.14" style="fill:#21e0a3"/><path d="M143.41,145.91l0-15.55L227.14,82l0,15.55-32.75,18.91.28,97.46L176.36,224.5,176.09,127l-32.68,18.87M230,77.09l-89.44,51.64.06,22.08,32.67-18.87.28,97.46,24-13.87-.28-97.46L230,99.16,230,77.09" transform="translate(0 -16.85)" style="fill:#022b3a"/></g></g><g style="isolation:isolate"><g style="clip-path:url(#clip-path-5)"><polyline points="98.63 145.8 26.85 187.24 27.17 300.25 45.52 289.65 45.4 246.99 97.17 217.1 97.13 201.54 45.35 231.43 45.24 192.2 98.67 161.35 98.63 145.8" style="fill:#21e0a3"/><path d="M27.17,317.1l-.32-113,71.78-41.44,0,15.55L45.24,209.05l.12,39.24,51.77-29.9,0,15.56L45.4,263.85l.12,42.66L27.17,317.1m74.29-159.35L24,202.47,24.34,322l24-13.87-.12-42.66L100,235.57,100,213.5,48.18,243.39l-.09-32.72,53.43-30.85-.06-22.07" transform="translate(0 -16.85)" style="fill:#022b3a"/><polyline points="135.04 124.78 116.69 135.37 117.01 248.38 135.36 237.79 135.04 124.78" style="fill:#21e0a3"/><path d="M117,265.23l-.32-113L135,141.63l.32,113L117,265.23m20.85-128.5-24,13.86.34,119.54,24-13.87-.34-119.53" transform="translate(0 -16.85)" style="fill:#022b3a"/><polyline points="233.14 68.14 149.37 116.5 149.41 132.06 182.09 113.19 182.36 210.65 200.71 200.06 200.43 102.6 233.18 83.69 233.14 68.14" style="fill:#21e0a3"/><path d="M149.41,148.91l0-15.55L233.14,85l0,15.55-32.75,18.91.28,97.46L182.36,227.5,182.09,130l-32.68,18.87M236,80.09l-89.44,51.64.06,22.08,32.67-18.87.28,97.46,24-13.87-.28-97.46L236,102.16,236,80.09" transform="translate(0 -16.85)" style="fill:#022b3a"/></g></g><g style="isolation:isolate"><g style="clip-path:url(#clip-path-6)"><path d="M164.88,261.47l-18.5,10.68,42.86,38.76c2,2,4.19,4,6.42,6.07s4.27,3.94,6.19,5.67q3.35,3,6.48,5.84l-2.85,1.58-11.78-4.85q-2.49-1-5.19-2.1L183.23,321c-1.81-.71-3.54-1.4-5.23-2s-3.21-1.21-4.6-1.69l-65-23.25L87,306.45,127.16,344l2.84,2.6c1,1,2.14,2,3.3,3s2.34,2.1,3.52,3.18,2.35,2.1,3.48,3.1l8.19,7.17-2.79,1.6c-3-1.17-6.11-2.38-9.33-3.6-2.82-1-6.07-2.24-9.65-3.6s-7.24-2.71-11-4.05L48.52,328.65,30,339.33l123.05,42.16L176,368.26,132.3,327.37c-.64-.65-1.35-1.32-2.14-2s-1.71-1.53-2.63-2.37-1.82-1.65-2.78-2.48-1.92-1.67-2.82-2.48c-2.12-1.83-4.33-3.73-6.61-5.65l2.85-1.6c3.21,1.38,6.41,2.68,9.49,3.87,2.71,1.08,5.55,2.18,8.46,3.29s5.46,2.06,7.62,2.83l70.53,25.39,22.92-13.23-72.31-71.45" transform="translate(0 -16.85)" style="fill:#21e0a3"/><path d="M208.33,328.49q-3.14-2.82-6.48-5.84c-1.92-1.73-4-3.64-6.19-5.67s-4.39-4.11-6.42-6.07l-42.86-38.76,18.5-10.68,72.31,71.45-22.92,13.23-70.53-25.39c-2.16-.77-4.72-1.72-7.62-2.83s-5.75-2.21-8.46-3.29c-3.08-1.19-6.28-2.49-9.49-3.87l-2.85,1.6c2.28,1.92,4.49,3.82,6.61,5.65.9.81,1.85,1.63,2.82,2.48s1.9,1.67,2.78,2.48,1.79,1.62,2.63,2.37,1.5,1.37,2.14,2L176,368.26l-22.91,13.23L30,339.33l18.51-10.68,67.24,24.72c3.72,1.34,7.41,2.7,11,4.05s6.83,2.57,9.65,3.6c3.22,1.22,6.36,2.43,9.33,3.6l2.79-1.6-8.19-7.17c-1.13-1-2.29-2-3.48-3.1s-2.36-2.14-3.52-3.18-2.26-2-3.3-3l-2.84-2.6L87,306.45l21.46-12.39,65,23.25c1.39.48,2.94,1.05,4.6,1.69s3.42,1.33,5.23,2l5.28,2.08q2.7,1.06,5.19,2.1l11.78,4.85,2.85-1.58m-42.6-70.78-24.45,14.12,44.56,40.31c2,1.94,4.18,4,6.43,6.07s4.28,4,6.2,5.69l.88.8L196,323.33q-2.52-1.05-5.26-2.13l-5.28-2.07c-1.81-.73-3.57-1.41-5.27-2.06s-3.31-1.25-4.74-1.75l-67.63-24.19-25.95,15,41.86,39.1q1.29,1.16,2.85,2.61t3.33,3l3.51,3.16c1.2,1.09,2.36,2.13,3.51,3.13l2.72,2.38-1.14-.44c-2.82-1-6-2.24-9.62-3.59s-7.29-2.73-11-4.07L48,325.7,23.54,339.81,153.68,384.4,181,368.6l-45.29-42.41c-.64-.66-1.4-1.38-2.25-2.12s-1.68-1.5-2.57-2.33-1.87-1.68-2.85-2.53l-2.81-2.46-.5-.44.64.25c2.71,1.07,5.57,2.19,8.5,3.31s5.54,2.08,7.72,2.86l73.21,26.35,27.36-15.79-76.47-75.58" transform="translate(0 -16.85)" style="fill:#022b3a"/><path d="M309.21,277.08A53.79,53.79,0,0,1,293,283.2a65.36,65.36,0,0,1-17.52,1.13,74.11,74.11,0,0,1-17.6-3.41,84.82,84.82,0,0,1-16.73-7.45,56.67,56.67,0,0,1-12.77-9.65c-3.13-3.31-5-6.69-5.59-10a13.48,13.48,0,0,1,2.4-10c2.16-3.23,5.84-6.36,11-9.32a55.54,55.54,0,0,1,15.92-6.19A62.57,62.57,0,0,1,269.27,227a72.17,72.17,0,0,1,17.34,3.24,83.18,83.18,0,0,1,16.67,7.42,63.11,63.11,0,0,1,12.82,9.49c3.31,3.32,5.39,6.71,6.17,10.07a13.31,13.31,0,0,1-1.9,10.18c-2,3.35-5.8,6.61-11.16,9.71m-86.76-50.59c-8,4.64-14,9.47-17.85,14.38s-5.67,9.83-5.56,14.72,2.16,9.8,6.12,14.59,9.89,9.52,17.54,14a105.73,105.73,0,0,0,23.59,10.08,98.58,98.58,0,0,0,51.18,1.15,96.37,96.37,0,0,0,25.47-10.32c7.78-4.49,13.62-9.27,17.38-14.22s5.55-9.95,5.4-15-2.24-10-6.18-15-9.84-9.69-17.49-14.14a101.75,101.75,0,0,0-24-10.11,97.46,97.46,0,0,0-50.71-.45,99.51,99.51,0,0,0-24.91,10.27" transform="translate(0 -16.85)" style="fill:#21e0a3"/><path d="M306.39,275.44A48.79,48.79,0,0,1,291.72,281,58.55,58.55,0,0,1,276,282a69,69,0,0,1-16.15-3.13A80.28,80.28,0,0,1,244,271.83a53.7,53.7,0,0,1-12.1-9.13c-2.87-3-4.59-6.12-5.12-9.16a12,12,0,0,1,2.15-8.92c1.95-2.93,5.33-5.79,10-8.51a50.47,50.47,0,0,1,14.51-5.66,56.07,56.07,0,0,1,15.33-1.18,66.26,66.26,0,0,1,15.85,3,78.09,78.09,0,0,1,15.75,7,60.35,60.35,0,0,1,12.2,9c3.05,3.05,5,6.15,5.67,9.22a11.91,11.91,0,0,1-1.71,9.1c-1.84,3-5.28,6-10.21,8.83m-70.2-41c-5.12,3-8.8,6.09-11,9.32a13.48,13.48,0,0,0-2.4,10c.58,3.35,2.46,6.73,5.59,10a56.67,56.67,0,0,0,12.77,9.65,84.82,84.82,0,0,0,16.73,7.45,74.11,74.11,0,0,0,17.6,3.41A65.36,65.36,0,0,0,293,283.2a53.79,53.79,0,0,0,16.17-6.12c5.36-3.1,9.12-6.36,11.16-9.71a13.31,13.31,0,0,0,1.9-10.18c-.78-3.36-2.86-6.75-6.17-10.07a63.11,63.11,0,0,0-12.82-9.49,83.18,83.18,0,0,0-16.67-7.42A72.17,72.17,0,0,0,269.27,227a62.57,62.57,0,0,0-17.16,1.31,55.54,55.54,0,0,0-15.92,6.19m86.75,50.59a96.37,96.37,0,0,1-25.47,10.32,98.58,98.58,0,0,1-51.18-1.15,105.73,105.73,0,0,1-23.59-10.08c-7.65-4.45-13.56-9.15-17.54-14s-6-9.7-6.12-14.59,1.76-9.84,5.56-14.72,9.83-9.74,17.85-14.38a99.51,99.51,0,0,1,24.91-10.27,97.46,97.46,0,0,1,50.71.45,101.75,101.75,0,0,1,24,10.11c7.65,4.45,13.53,9.21,17.49,14.14s6,10,6.18,15-1.67,10-5.4,15-9.6,9.73-17.38,14.22M219.63,224.85c-8.37,4.83-14.65,9.9-18.68,15.07s-6,10.47-5.91,15.71,2.3,10.46,6.52,15.55,10.33,10,18.3,14.61a110.56,110.56,0,0,0,24.62,10.52A105.56,105.56,0,0,0,299,297.52a101,101,0,0,0,26.76-10.82C333.89,282,340,277,344,271.77s5.9-10.59,5.73-15.93-2.36-10.69-6.54-15.9-10.31-10.16-18.28-14.79A105.63,105.63,0,0,0,273,210.77a104.09,104.09,0,0,0-53.32,14.08" transform="translate(0 -16.85)" style="fill:#022b3a"/><path d="M356.88,203.93,324.38,185l28.56-16.49a45,45,0,0,1,18.52-6.24,29.2,29.2,0,0,1,17.47,3.88,18.42,18.42,0,0,1,5.47,4.53,7.71,7.71,0,0,1,1.72,5.2,9.49,9.49,0,0,1-2.68,5.54,30,30,0,0,1-7.42,5.65l-29.14,16.82m-15.23-44.52-49.13,28.37,97.71,56.78L408.57,234,370.4,211.79l27.06-15.63,61.66,8.63L479.57,193l-68.78-8.65,1.48-1.39a20.88,20.88,0,0,0,5.06-6.9,12.58,12.58,0,0,0,.93-7.24,15.62,15.62,0,0,0-3.47-7.15,29.57,29.57,0,0,0-8.23-6.64,52.19,52.19,0,0,0-14.12-5.63,54.16,54.16,0,0,0-15.54-1.31,70.83,70.83,0,0,0-17.06,3.2,91.23,91.23,0,0,0-18.19,8.14" transform="translate(0 -16.85)" style="fill:#21e0a3"/><path d="M356.9,200.65,330,185l25.72-14.85A39.73,39.73,0,0,1,372,164.61a23.16,23.16,0,0,1,14.06,3.21,15.79,15.79,0,0,1,4.64,3.84,6.18,6.18,0,0,1,1.38,4.18,7.81,7.81,0,0,1-2.25,4.57,26.49,26.49,0,0,1-6.67,5.06l-26.3,15.18m-4-32.1L324.38,185l32.5,18.89L386,187.11a30,30,0,0,0,7.42-5.65,9.49,9.49,0,0,0,2.68-5.54,7.71,7.71,0,0,0-1.72-5.2,18.42,18.42,0,0,0-5.47-4.53,29.2,29.2,0,0,0-17.47-3.88,45,45,0,0,0-18.52,6.24m37.29,76-97.71-56.78,49.13-28.37a91.23,91.23,0,0,1,18.19-8.14,70.83,70.83,0,0,1,17.06-3.2,54.16,54.16,0,0,1,15.54,1.31A52.19,52.19,0,0,1,406.56,155a29.57,29.57,0,0,1,8.23,6.64,15.62,15.62,0,0,1,3.47,7.15,12.58,12.58,0,0,1-.93,7.24,20.88,20.88,0,0,1-5.06,6.9l-1.48,1.39L479.57,193l-20.45,11.81-61.66-8.63L370.4,211.79,408.57,234l-18.34,10.59m-51.39-86.79-52,30L390.2,247.84l24-13.87-38.17-22.18,22.63-13.07,61.65,8.62,27.24-15.73-70.5-8.86a21.41,21.41,0,0,0,4.13-6.16,13.94,13.94,0,0,0,1-8,17.17,17.17,0,0,0-3.83-7.89,32.42,32.42,0,0,0-9-7.3A57,57,0,0,0,394,147.23a61.08,61.08,0,0,0-17.43-1.47A77,77,0,0,0,358,149.24a95,95,0,0,0-19.12,8.53" transform="translate(0 -16.85)" style="fill:#022b3a"/><polyline points="417.07 99.01 398.73 109.6 496.44 166.38 569.08 124.44 555.63 116.63 501.34 147.98 417.07 99.01" style="fill:#21e0a3"/><path d="M496.44,183.24l-97.71-56.79,18.34-10.59,84.27,49,54.29-31.35,13.45,7.82-72.64,41.94M417.1,112.59l-24,13.87,103.35,60.05,78.31-45.21-19.09-11.09-54.28,31.34-84.26-49" transform="translate(0 -16.85)" style="fill:#022b3a"/><path d="M591.18,113,520.37,71.81l16.42-9.49a73,73,0,0,1,15.68-6.74A64.39,64.39,0,0,1,569.58,53a66.76,66.76,0,0,1,17.91,2.21,72.74,72.74,0,0,1,18.06,7.6c5.84,3.39,10.27,6.88,13.17,10.37s4.55,7,4.82,10.37a14.2,14.2,0,0,1-2.95,9.78,32.09,32.09,0,0,1-10,8.48L591.18,113m-67.41-58.7-35.2,20.33,97.71,56.78,39.51-22.82c6.75-3.89,12.05-8.19,15.74-12.79s5.61-9.33,5.74-14.18-1.7-9.83-5.38-14.81S632.19,56.84,624,52.1a94.28,94.28,0,0,0-25.48-10.36A92.94,92.94,0,0,0,573,39.26a98.84,98.84,0,0,0-25.14,4.42,119.59,119.59,0,0,0-24.08,10.58" transform="translate(0 -16.85)" style="fill:#21e0a3"/><path d="M591.19,109.68,526,71.81,539.62,64a67.92,67.92,0,0,1,14.66-6.32,58.12,58.12,0,0,1,15.42-2.36,60.05,60.05,0,0,1,16.14,2,67.65,67.65,0,0,1,16.87,7.12c5.52,3.21,9.7,6.49,12.41,9.74s4.18,6.42,4.44,9.48a12.84,12.84,0,0,1-2.66,8.76,29.13,29.13,0,0,1-9.17,7.73l-16.54,9.55m-54.4-47.36-16.42,9.49L591.18,113l19.37-11.18a32.09,32.09,0,0,0,10-8.48,14.2,14.2,0,0,0,2.95-9.78c-.27-3.37-1.9-6.86-4.82-10.37s-7.33-7-13.17-10.37a72.74,72.74,0,0,0-18.06-7.6A66.76,66.76,0,0,0,569.58,53a64.39,64.39,0,0,0-17.11,2.61,73,73,0,0,0-15.68,6.74m49.49,69.05L488.57,74.59l35.2-20.33a119.59,119.59,0,0,1,24.08-10.58A98.84,98.84,0,0,1,573,39.26a92.94,92.94,0,0,1,25.57,2.48A94.28,94.28,0,0,1,624,52.1c8.15,4.74,14.16,9.68,17.85,14.67s5.49,10,5.38,14.81-2,9.62-5.74,14.18-9,8.9-15.74,12.79l-39.51,22.82M521,52.62l-38.05,22,103.34,60,42.36-24.45c7.07-4.08,12.65-8.61,16.55-13.45s6-10,6.1-15.13-1.78-10.47-5.69-15.76-10.19-10.44-18.7-15.38A98,98,0,0,0,572.7,37,105.12,105.12,0,0,0,546,41.64a124.14,124.14,0,0,0-25,11" transform="translate(0 -16.85)" style="fill:#022b3a"/></g></g><g style="isolation:isolate"><g style="clip-path:url(#clip-path-7)"><path d="M164.88,256.47l-18.5,10.68,42.86,38.76c2,2,4.19,4,6.42,6.07s4.27,3.94,6.19,5.67q3.35,3,6.48,5.84l-2.85,1.58-11.78-4.85q-2.49-1-5.19-2.1L183.23,316c-1.81-.71-3.54-1.4-5.23-2s-3.21-1.21-4.6-1.69l-65-23.25L87,301.45,127.16,339l2.84,2.6c1,1,2.14,2,3.3,3s2.34,2.1,3.52,3.18,2.35,2.1,3.48,3.1l8.19,7.17-2.79,1.6c-3-1.17-6.11-2.38-9.33-3.6-2.82-1-6.07-2.24-9.65-3.6s-7.24-2.71-11-4.05L48.52,323.65,30,334.33l123.05,42.16L176,363.26,132.3,322.37c-.64-.65-1.35-1.32-2.14-2s-1.71-1.53-2.63-2.37-1.82-1.65-2.78-2.48-1.92-1.67-2.82-2.48c-2.12-1.83-4.33-3.73-6.61-5.65l2.85-1.6c3.21,1.38,6.41,2.68,9.49,3.87,2.71,1.08,5.55,2.18,8.46,3.29s5.46,2.06,7.62,2.83l70.53,25.39,22.92-13.23-72.31-71.45" transform="translate(0 -16.85)" style="fill:#21e0a3"/><path d="M208.33,323.49q-3.14-2.82-6.48-5.84c-1.92-1.73-4-3.64-6.19-5.67s-4.39-4.11-6.42-6.07l-42.86-38.76,18.5-10.68,72.31,71.45-22.92,13.23-70.53-25.39c-2.16-.77-4.72-1.72-7.62-2.83s-5.75-2.21-8.46-3.29c-3.08-1.19-6.28-2.49-9.49-3.87l-2.85,1.6c2.28,1.92,4.49,3.82,6.61,5.65.9.81,1.85,1.63,2.82,2.48s1.9,1.67,2.78,2.48,1.79,1.62,2.63,2.37,1.5,1.37,2.14,2L176,363.26l-22.91,13.23L30,334.33l18.51-10.68,67.24,24.72c3.72,1.34,7.41,2.7,11,4.05s6.83,2.57,9.65,3.6c3.22,1.22,6.36,2.43,9.33,3.6l2.79-1.6-8.19-7.17c-1.13-1-2.29-2-3.48-3.1s-2.36-2.14-3.52-3.18-2.26-2-3.3-3l-2.84-2.6L87,301.45l21.46-12.39,65,23.25c1.39.48,2.94,1.05,4.6,1.69s3.42,1.33,5.23,2l5.28,2.08q2.7,1.06,5.19,2.1l11.78,4.85,2.85-1.58m-42.6-70.78-24.45,14.12,44.56,40.31c2,1.94,4.18,4,6.43,6.07s4.28,4,6.2,5.69l.88.8L196,318.33q-2.52-1.05-5.26-2.13l-5.28-2.07c-1.81-.73-3.57-1.41-5.27-2.06s-3.31-1.25-4.74-1.75l-67.63-24.19-25.95,15,41.86,39.1q1.29,1.16,2.85,2.61t3.33,3l3.51,3.16c1.2,1.09,2.36,2.13,3.51,3.13l2.72,2.38-1.14-.44c-2.82-1-6-2.24-9.62-3.59s-7.29-2.73-11-4.07L48,320.7,23.54,334.81,153.68,379.4,181,363.6l-45.29-42.41c-.64-.66-1.4-1.38-2.25-2.12s-1.68-1.5-2.57-2.33-1.87-1.68-2.85-2.53l-2.81-2.46-.5-.44.64.25c2.71,1.07,5.57,2.19,8.5,3.31s5.54,2.08,7.72,2.86l73.21,26.35,27.36-15.79-76.47-75.58" transform="translate(0 -16.85)" style="fill:#022b3a"/><path d="M309.21,272.08A53.79,53.79,0,0,1,293,278.2a65.36,65.36,0,0,1-17.52,1.13,74.11,74.11,0,0,1-17.6-3.41,84.82,84.82,0,0,1-16.73-7.45,56.67,56.67,0,0,1-12.77-9.65c-3.13-3.31-5-6.69-5.59-10a13.48,13.48,0,0,1,2.4-10c2.16-3.23,5.84-6.36,11-9.32a55.54,55.54,0,0,1,15.92-6.19A62.57,62.57,0,0,1,269.27,222a72.17,72.17,0,0,1,17.34,3.24,83.18,83.18,0,0,1,16.67,7.42,63.11,63.11,0,0,1,12.82,9.49c3.31,3.32,5.39,6.71,6.17,10.07a13.31,13.31,0,0,1-1.9,10.18c-2,3.35-5.8,6.61-11.16,9.71m-86.76-50.59c-8,4.64-14,9.47-17.85,14.38s-5.67,9.83-5.56,14.72,2.16,9.8,6.12,14.59,9.89,9.52,17.54,14a105.73,105.73,0,0,0,23.59,10.08,98.58,98.58,0,0,0,51.18,1.15,96.37,96.37,0,0,0,25.47-10.32c7.78-4.49,13.62-9.27,17.38-14.22s5.55-9.95,5.4-15-2.24-10-6.18-15-9.84-9.69-17.49-14.14a101.75,101.75,0,0,0-24-10.11,97.46,97.46,0,0,0-50.71-.45,99.51,99.51,0,0,0-24.91,10.27" transform="translate(0 -16.85)" style="fill:#21e0a3"/><path d="M306.39,270.44A48.79,48.79,0,0,1,291.72,276,58.55,58.55,0,0,1,276,277a69,69,0,0,1-16.15-3.13A80.28,80.28,0,0,1,244,266.83a53.7,53.7,0,0,1-12.1-9.13c-2.87-3-4.59-6.12-5.12-9.16a12,12,0,0,1,2.15-8.92c1.95-2.93,5.33-5.79,10-8.51a50.47,50.47,0,0,1,14.51-5.66,56.07,56.07,0,0,1,15.33-1.18,66.26,66.26,0,0,1,15.85,3,78.09,78.09,0,0,1,15.75,7,60.35,60.35,0,0,1,12.2,9c3.05,3.05,5,6.15,5.67,9.22a11.91,11.91,0,0,1-1.71,9.1c-1.84,3-5.28,6-10.21,8.83m-70.2-41c-5.12,3-8.8,6.09-11,9.32a13.48,13.48,0,0,0-2.4,10c.58,3.35,2.46,6.73,5.59,10a56.67,56.67,0,0,0,12.77,9.65,84.82,84.82,0,0,0,16.73,7.45,74.11,74.11,0,0,0,17.6,3.41A65.36,65.36,0,0,0,293,278.2a53.79,53.79,0,0,0,16.17-6.12c5.36-3.1,9.12-6.36,11.16-9.71a13.31,13.31,0,0,0,1.9-10.18c-.78-3.36-2.86-6.75-6.17-10.07a63.11,63.11,0,0,0-12.82-9.49,83.18,83.18,0,0,0-16.67-7.42A72.17,72.17,0,0,0,269.27,222a62.57,62.57,0,0,0-17.16,1.31,55.54,55.54,0,0,0-15.92,6.19m86.75,50.59a96.37,96.37,0,0,1-25.47,10.32,98.58,98.58,0,0,1-51.18-1.15,105.73,105.73,0,0,1-23.59-10.08c-7.65-4.45-13.56-9.15-17.54-14s-6-9.7-6.12-14.59,1.76-9.84,5.56-14.72,9.83-9.74,17.85-14.38a99.51,99.51,0,0,1,24.91-10.27,97.46,97.46,0,0,1,50.71.45,101.75,101.75,0,0,1,24,10.11c7.65,4.45,13.53,9.21,17.49,14.14s6,10,6.18,15-1.67,10-5.4,15-9.6,9.73-17.38,14.22M219.63,219.85c-8.37,4.83-14.65,9.9-18.68,15.07s-6,10.47-5.91,15.71,2.3,10.46,6.52,15.55,10.33,10,18.3,14.61a110.56,110.56,0,0,0,24.62,10.52A105.56,105.56,0,0,0,299,292.52a101,101,0,0,0,26.76-10.82C333.89,277,340,272,344,266.77s5.9-10.59,5.73-15.93-2.36-10.69-6.54-15.9-10.31-10.16-18.28-14.79A105.63,105.63,0,0,0,273,205.77a104.09,104.09,0,0,0-53.32,14.08" transform="translate(0 -16.85)" style="fill:#022b3a"/><path d="M356.88,198.93,324.38,180l28.56-16.49a45,45,0,0,1,18.52-6.24,29.2,29.2,0,0,1,17.47,3.88,18.42,18.42,0,0,1,5.47,4.53,7.71,7.71,0,0,1,1.72,5.2,9.49,9.49,0,0,1-2.68,5.54,30,30,0,0,1-7.42,5.65l-29.14,16.82m-15.23-44.52-49.13,28.37,97.71,56.78L408.57,229,370.4,206.79l27.06-15.63,61.66,8.63L479.57,188l-68.78-8.65,1.48-1.39a20.88,20.88,0,0,0,5.06-6.9,12.58,12.58,0,0,0,.93-7.24,15.62,15.62,0,0,0-3.47-7.15,29.57,29.57,0,0,0-8.23-6.64,52.19,52.19,0,0,0-14.12-5.63,54.16,54.16,0,0,0-15.54-1.31,70.83,70.83,0,0,0-17.06,3.2,91.23,91.23,0,0,0-18.19,8.14" transform="translate(0 -16.85)" style="fill:#21e0a3"/><path d="M356.9,195.65,330,180l25.72-14.85A39.73,39.73,0,0,1,372,159.61a23.16,23.16,0,0,1,14.06,3.21,15.79,15.79,0,0,1,4.64,3.84,6.18,6.18,0,0,1,1.38,4.18,7.81,7.81,0,0,1-2.25,4.57,26.49,26.49,0,0,1-6.67,5.06l-26.3,15.18m-4-32.1L324.38,180l32.5,18.89L386,182.11a30,30,0,0,0,7.42-5.65,9.49,9.49,0,0,0,2.68-5.54,7.71,7.71,0,0,0-1.72-5.2,18.42,18.42,0,0,0-5.47-4.53,29.2,29.2,0,0,0-17.47-3.88,45,45,0,0,0-18.52,6.24m37.29,76-97.71-56.78,49.13-28.37a91.23,91.23,0,0,1,18.19-8.14,70.83,70.83,0,0,1,17.06-3.2,54.16,54.16,0,0,1,15.54,1.31A52.19,52.19,0,0,1,406.56,150a29.57,29.57,0,0,1,8.23,6.64,15.62,15.62,0,0,1,3.47,7.15,12.58,12.58,0,0,1-.93,7.24,20.88,20.88,0,0,1-5.06,6.9l-1.48,1.39L479.57,188l-20.45,11.81-61.66-8.63L370.4,206.79,408.57,229l-18.34,10.59m-51.39-86.79-52,30L390.2,242.84l24-13.87-38.17-22.18,22.63-13.07,61.65,8.62,27.24-15.73-70.5-8.86a21.41,21.41,0,0,0,4.13-6.16,13.94,13.94,0,0,0,1-8,17.17,17.17,0,0,0-3.83-7.89,32.42,32.42,0,0,0-9-7.3A57,57,0,0,0,394,142.23a61.08,61.08,0,0,0-17.43-1.47A77,77,0,0,0,358,144.24a95,95,0,0,0-19.12,8.53" transform="translate(0 -16.85)" style="fill:#022b3a"/><polyline points="417.07 94.01 398.73 104.6 496.44 161.38 569.08 119.44 555.63 111.63 501.34 142.98 417.07 94.01" style="fill:#21e0a3"/><path d="M496.44,178.24l-97.71-56.79,18.34-10.59,84.27,49,54.29-31.35,13.45,7.82-72.64,41.94M417.1,107.59l-24,13.87,103.35,60.05,78.31-45.21-19.09-11.09-54.28,31.34-84.26-49" transform="translate(0 -16.85)" style="fill:#022b3a"/><path d="M591.18,108,520.37,66.81l16.42-9.49a73,73,0,0,1,15.68-6.74A64.39,64.39,0,0,1,569.58,48a66.76,66.76,0,0,1,17.91,2.21,72.74,72.74,0,0,1,18.06,7.6c5.84,3.39,10.27,6.88,13.17,10.37s4.55,7,4.82,10.37a14.2,14.2,0,0,1-2.95,9.78,32.09,32.09,0,0,1-10,8.48L591.18,108m-67.41-58.7-35.2,20.33,97.71,56.78,39.51-22.82c6.75-3.89,12.05-8.19,15.74-12.79s5.61-9.33,5.74-14.18-1.7-9.83-5.38-14.81S632.19,51.84,624,47.1a94.28,94.28,0,0,0-25.48-10.36A92.94,92.94,0,0,0,573,34.26a98.84,98.84,0,0,0-25.14,4.42,119.59,119.59,0,0,0-24.08,10.58" transform="translate(0 -16.85)" style="fill:#21e0a3"/><path d="M591.19,104.68,526,66.81,539.62,59a67.92,67.92,0,0,1,14.66-6.32,58.12,58.12,0,0,1,15.42-2.36,60.05,60.05,0,0,1,16.14,2,67.65,67.65,0,0,1,16.87,7.12c5.52,3.21,9.7,6.49,12.41,9.74s4.18,6.42,4.44,9.48a12.84,12.84,0,0,1-2.66,8.76,29.13,29.13,0,0,1-9.17,7.73l-16.54,9.55m-54.4-47.36-16.42,9.49L591.18,108l19.37-11.18a32.09,32.09,0,0,0,10-8.48,14.2,14.2,0,0,0,2.95-9.78c-.27-3.37-1.9-6.86-4.82-10.37s-7.33-7-13.17-10.37a72.74,72.74,0,0,0-18.06-7.6A66.76,66.76,0,0,0,569.58,48a64.39,64.39,0,0,0-17.11,2.61,73,73,0,0,0-15.68,6.74m49.49,69.05L488.57,69.59l35.2-20.33a119.59,119.59,0,0,1,24.08-10.58A98.84,98.84,0,0,1,573,34.26a92.94,92.94,0,0,1,25.57,2.48A94.28,94.28,0,0,1,624,47.1c8.15,4.74,14.16,9.68,17.85,14.67s5.49,10,5.38,14.81-2,9.62-5.74,14.18-9,8.9-15.74,12.79l-39.51,22.82M521,47.62l-38.05,22,103.34,60,42.36-24.45c7.07-4.08,12.65-8.61,16.55-13.45s6-10,6.1-15.13-1.78-10.47-5.69-15.76-10.19-10.44-18.7-15.38A98,98,0,0,0,572.7,32,105.12,105.12,0,0,0,546,36.64a124.14,124.14,0,0,0-25,11" transform="translate(0 -16.85)" style="fill:#022b3a"/></g></g><g style="isolation:isolate"><g style="clip-path:url(#clip-path-8)"><path d="M164.88,251.47l-18.5,10.68,42.86,38.76c2,2,4.19,4,6.42,6.07s4.27,3.94,6.19,5.67q3.35,3,6.48,5.84l-2.85,1.58-11.78-4.85q-2.49-1-5.19-2.1L183.23,311c-1.81-.71-3.54-1.4-5.23-2s-3.21-1.21-4.6-1.69l-65-23.25L87,296.45,127.16,334l2.84,2.6c1,1,2.14,2,3.3,3s2.34,2.1,3.52,3.18,2.35,2.1,3.48,3.1l8.19,7.17-2.79,1.6c-3-1.17-6.11-2.38-9.33-3.6-2.82-1-6.07-2.24-9.65-3.6s-7.24-2.71-11-4.05L48.52,318.65,30,329.33l123.05,42.16L176,358.26,132.3,317.37c-.64-.65-1.35-1.32-2.14-2s-1.71-1.53-2.63-2.37-1.82-1.65-2.78-2.48-1.92-1.67-2.82-2.48c-2.12-1.83-4.33-3.73-6.61-5.65l2.85-1.6c3.21,1.38,6.41,2.68,9.49,3.87,2.71,1.08,5.55,2.18,8.46,3.29s5.46,2.06,7.62,2.83l70.53,25.39,22.92-13.23-72.31-71.45" transform="translate(0 -16.85)" style="fill:#21e0a3"/><path d="M208.33,318.49q-3.14-2.82-6.48-5.84c-1.92-1.73-4-3.64-6.19-5.67s-4.39-4.11-6.42-6.07l-42.86-38.76,18.5-10.68,72.31,71.45-22.92,13.23-70.53-25.39c-2.16-.77-4.72-1.72-7.62-2.83s-5.75-2.21-8.46-3.29c-3.08-1.19-6.28-2.49-9.49-3.87l-2.85,1.6c2.28,1.92,4.49,3.82,6.61,5.65.9.81,1.85,1.63,2.82,2.48s1.9,1.67,2.78,2.48,1.79,1.62,2.63,2.37,1.5,1.37,2.14,2L176,358.26l-22.91,13.23L30,329.33l18.51-10.68,67.24,24.72c3.72,1.34,7.41,2.7,11,4.05s6.83,2.57,9.65,3.6c3.22,1.22,6.36,2.43,9.33,3.6l2.79-1.6-8.19-7.17c-1.13-1-2.29-2-3.48-3.1s-2.36-2.14-3.52-3.18-2.26-2-3.3-3l-2.84-2.6L87,296.45l21.46-12.39,65,23.25c1.39.48,2.94,1.05,4.6,1.69s3.42,1.33,5.23,2l5.28,2.08q2.7,1.06,5.19,2.1l11.78,4.85,2.85-1.58m-42.6-70.78-24.45,14.12,44.56,40.31c2,1.94,4.18,4,6.43,6.07s4.28,4,6.2,5.69l.88.8L196,313.33q-2.52-1.05-5.26-2.13l-5.28-2.07c-1.81-.73-3.57-1.41-5.27-2.06s-3.31-1.25-4.74-1.75l-67.63-24.19-25.95,15,41.86,39.1q1.29,1.16,2.85,2.61t3.33,3l3.51,3.16c1.2,1.09,2.36,2.13,3.51,3.13l2.72,2.38-1.14-.44c-2.82-1-6-2.24-9.62-3.59s-7.29-2.73-11-4.07L48,315.7,23.54,329.81,153.68,374.4,181,358.6l-45.29-42.41c-.64-.66-1.4-1.38-2.25-2.12s-1.68-1.5-2.57-2.33-1.87-1.68-2.85-2.53l-2.81-2.46-.5-.44.64.25c2.71,1.07,5.57,2.19,8.5,3.31s5.54,2.08,7.72,2.86l73.21,26.35,27.36-15.79-76.47-75.58" transform="translate(0 -16.85)" style="fill:#022b3a"/><path d="M309.21,267.08A53.79,53.79,0,0,1,293,273.2a65.36,65.36,0,0,1-17.52,1.13,74.11,74.11,0,0,1-17.6-3.41,84.82,84.82,0,0,1-16.73-7.45,56.67,56.67,0,0,1-12.77-9.65c-3.13-3.31-5-6.69-5.59-10a13.48,13.48,0,0,1,2.4-10c2.16-3.23,5.84-6.36,11-9.32a55.54,55.54,0,0,1,15.92-6.19A62.57,62.57,0,0,1,269.27,217a72.17,72.17,0,0,1,17.34,3.24,83.18,83.18,0,0,1,16.67,7.42,63.11,63.11,0,0,1,12.82,9.49c3.31,3.32,5.39,6.71,6.17,10.07a13.31,13.31,0,0,1-1.9,10.18c-2,3.35-5.8,6.61-11.16,9.71m-86.76-50.59c-8,4.64-14,9.47-17.85,14.38s-5.67,9.83-5.56,14.72,2.16,9.8,6.12,14.59,9.89,9.52,17.54,14a105.73,105.73,0,0,0,23.59,10.08,98.58,98.58,0,0,0,51.18,1.15,96.37,96.37,0,0,0,25.47-10.32c7.78-4.49,13.62-9.27,17.38-14.22s5.55-9.95,5.4-15-2.24-10-6.18-15-9.84-9.69-17.49-14.14a101.75,101.75,0,0,0-24-10.11,97.46,97.46,0,0,0-50.71-.45,99.51,99.51,0,0,0-24.91,10.27" transform="translate(0 -16.85)" style="fill:#21e0a3"/><path d="M306.39,265.44A48.79,48.79,0,0,1,291.72,271,58.55,58.55,0,0,1,276,272a69,69,0,0,1-16.15-3.13A80.28,80.28,0,0,1,244,261.83a53.7,53.7,0,0,1-12.1-9.13c-2.87-3-4.59-6.12-5.12-9.16a12,12,0,0,1,2.15-8.92c1.95-2.93,5.33-5.79,10-8.51a50.47,50.47,0,0,1,14.51-5.66,56.07,56.07,0,0,1,15.33-1.18,66.26,66.26,0,0,1,15.85,3,78.09,78.09,0,0,1,15.75,7,60.35,60.35,0,0,1,12.2,9c3.05,3.05,5,6.15,5.67,9.22a11.91,11.91,0,0,1-1.71,9.1c-1.84,3-5.28,6-10.21,8.83m-70.2-41c-5.12,3-8.8,6.09-11,9.32a13.48,13.48,0,0,0-2.4,10c.58,3.35,2.46,6.73,5.59,10a56.67,56.67,0,0,0,12.77,9.65,84.82,84.82,0,0,0,16.73,7.45,74.11,74.11,0,0,0,17.6,3.41A65.36,65.36,0,0,0,293,273.2a53.79,53.79,0,0,0,16.17-6.12c5.36-3.1,9.12-6.36,11.16-9.71a13.31,13.31,0,0,0,1.9-10.18c-.78-3.36-2.86-6.75-6.17-10.07a63.11,63.11,0,0,0-12.82-9.49,83.18,83.18,0,0,0-16.67-7.42A72.17,72.17,0,0,0,269.27,217a62.57,62.57,0,0,0-17.16,1.31,55.54,55.54,0,0,0-15.92,6.19m86.75,50.59a96.37,96.37,0,0,1-25.47,10.32,98.58,98.58,0,0,1-51.18-1.15,105.73,105.73,0,0,1-23.59-10.08c-7.65-4.45-13.56-9.15-17.54-14s-6-9.7-6.12-14.59,1.76-9.84,5.56-14.72,9.83-9.74,17.85-14.38a99.51,99.51,0,0,1,24.91-10.27,97.46,97.46,0,0,1,50.71.45,101.75,101.75,0,0,1,24,10.11c7.65,4.45,13.53,9.21,17.49,14.14s6,10,6.18,15-1.67,10-5.4,15-9.6,9.73-17.38,14.22M219.63,214.85c-8.37,4.83-14.65,9.9-18.68,15.07s-6,10.47-5.91,15.71,2.3,10.46,6.52,15.55,10.33,10,18.3,14.61a110.56,110.56,0,0,0,24.62,10.52A105.56,105.56,0,0,0,299,287.52a101,101,0,0,0,26.76-10.82C333.89,272,340,267,344,261.77s5.9-10.59,5.73-15.93-2.36-10.69-6.54-15.9-10.31-10.16-18.28-14.79A105.63,105.63,0,0,0,273,200.77a104.09,104.09,0,0,0-53.32,14.08" transform="translate(0 -16.85)" style="fill:#022b3a"/><path d="M356.88,193.93,324.38,175l28.56-16.49a45,45,0,0,1,18.52-6.24,29.2,29.2,0,0,1,17.47,3.88,18.42,18.42,0,0,1,5.47,4.53,7.71,7.71,0,0,1,1.72,5.2,9.49,9.49,0,0,1-2.68,5.54,30,30,0,0,1-7.42,5.65l-29.14,16.82m-15.23-44.52-49.13,28.37,97.71,56.78L408.57,224,370.4,201.79l27.06-15.63,61.66,8.63L479.57,183l-68.78-8.65,1.48-1.39a20.88,20.88,0,0,0,5.06-6.9,12.58,12.58,0,0,0,.93-7.24,15.62,15.62,0,0,0-3.47-7.15,29.57,29.57,0,0,0-8.23-6.64,52.19,52.19,0,0,0-14.12-5.63,54.16,54.16,0,0,0-15.54-1.31,70.83,70.83,0,0,0-17.06,3.2,91.23,91.23,0,0,0-18.19,8.14" transform="translate(0 -16.85)" style="fill:#21e0a3"/><path d="M356.9,190.65,330,175l25.72-14.85A39.73,39.73,0,0,1,372,154.61a23.16,23.16,0,0,1,14.06,3.21,15.79,15.79,0,0,1,4.64,3.84,6.18,6.18,0,0,1,1.38,4.18,7.81,7.81,0,0,1-2.25,4.57,26.49,26.49,0,0,1-6.67,5.06l-26.3,15.18m-4-32.1L324.38,175l32.5,18.89L386,177.11a30,30,0,0,0,7.42-5.65,9.49,9.49,0,0,0,2.68-5.54,7.71,7.71,0,0,0-1.72-5.2,18.42,18.42,0,0,0-5.47-4.53,29.2,29.2,0,0,0-17.47-3.88,45,45,0,0,0-18.52,6.24m37.29,76-97.71-56.78,49.13-28.37a91.23,91.23,0,0,1,18.19-8.14,70.83,70.83,0,0,1,17.06-3.2,54.16,54.16,0,0,1,15.54,1.31A52.19,52.19,0,0,1,406.56,145a29.57,29.57,0,0,1,8.23,6.64,15.62,15.62,0,0,1,3.47,7.15,12.58,12.58,0,0,1-.93,7.24,20.88,20.88,0,0,1-5.06,6.9l-1.48,1.39L479.57,183l-20.45,11.81-61.66-8.63L370.4,201.79,408.57,224l-18.34,10.59m-51.39-86.79-52,30L390.2,237.84l24-13.87-38.17-22.18,22.63-13.07,61.65,8.62,27.24-15.73-70.5-8.86a21.41,21.41,0,0,0,4.13-6.16,13.94,13.94,0,0,0,1-8,17.17,17.17,0,0,0-3.83-7.89,32.42,32.42,0,0,0-9-7.3A57,57,0,0,0,394,137.23a61.08,61.08,0,0,0-17.43-1.47A77,77,0,0,0,358,139.24a95,95,0,0,0-19.12,8.53" transform="translate(0 -16.85)" style="fill:#022b3a"/><polyline points="417.07 89.01 398.73 99.6 496.44 156.38 569.08 114.44 555.63 106.63 501.34 137.98 417.07 89.01" style="fill:#21e0a3"/><path d="M496.44,173.24l-97.71-56.79,18.34-10.59,84.27,49,54.29-31.35,13.45,7.82-72.64,41.94M417.1,102.59l-24,13.87,103.35,60.05,78.31-45.21-19.09-11.09-54.28,31.34-84.26-49" transform="translate(0 -16.85)" style="fill:#022b3a"/><path d="M591.18,103,520.37,61.81l16.42-9.49a73,73,0,0,1,15.68-6.74A64.39,64.39,0,0,1,569.58,43a66.76,66.76,0,0,1,17.91,2.21,72.74,72.74,0,0,1,18.06,7.6c5.84,3.39,10.27,6.88,13.17,10.37s4.55,7,4.82,10.37a14.2,14.2,0,0,1-2.95,9.78,32.09,32.09,0,0,1-10,8.48L591.18,103m-67.41-58.7-35.2,20.33,97.71,56.78,39.51-22.82c6.75-3.89,12.05-8.19,15.74-12.79s5.61-9.33,5.74-14.18-1.7-9.83-5.38-14.81S632.19,46.84,624,42.1a94.28,94.28,0,0,0-25.48-10.36A92.94,92.94,0,0,0,573,29.26a98.84,98.84,0,0,0-25.14,4.42,119.59,119.59,0,0,0-24.08,10.58" transform="translate(0 -16.85)" style="fill:#21e0a3"/><path d="M591.19,99.68,526,61.81,539.62,54a67.92,67.92,0,0,1,14.66-6.32,58.12,58.12,0,0,1,15.42-2.36,60.05,60.05,0,0,1,16.14,2,67.65,67.65,0,0,1,16.87,7.12c5.52,3.21,9.7,6.49,12.41,9.74s4.18,6.42,4.44,9.48a12.84,12.84,0,0,1-2.66,8.76,29.13,29.13,0,0,1-9.17,7.73l-16.54,9.55m-54.4-47.36-16.42,9.49L591.18,103l19.37-11.18a32.09,32.09,0,0,0,10-8.48,14.2,14.2,0,0,0,2.95-9.78c-.27-3.37-1.9-6.86-4.82-10.37s-7.33-7-13.17-10.37a72.74,72.74,0,0,0-18.06-7.6A66.76,66.76,0,0,0,569.58,43a64.39,64.39,0,0,0-17.11,2.61,73,73,0,0,0-15.68,6.74m49.49,69.05L488.57,64.59l35.2-20.33a119.59,119.59,0,0,1,24.08-10.58A98.84,98.84,0,0,1,573,29.26a92.94,92.94,0,0,1,25.57,2.48A94.28,94.28,0,0,1,624,42.1c8.15,4.74,14.16,9.68,17.85,14.67s5.49,10,5.38,14.81-2,9.62-5.74,14.18-9,8.9-15.74,12.79l-39.51,22.82M521,42.62l-38.05,22,103.34,60.05,42.36-24.45c7.07-4.08,12.65-8.61,16.55-13.45s6-10,6.1-15.13-1.78-10.47-5.69-15.76-10.19-10.44-18.7-15.38A98,98,0,0,0,572.7,27,105.12,105.12,0,0,0,546,31.64a124.14,124.14,0,0,0-25,11" transform="translate(0 -16.85)" style="fill:#022b3a"/></g></g><g style="isolation:isolate"><g style="clip-path:url(#clip-path-9)"><path d="M164.88,246.47l-18.5,10.68,42.86,38.76c2,2,4.19,4,6.42,6.07s4.27,3.94,6.19,5.67q3.35,3,6.48,5.84l-2.85,1.58-11.78-4.85q-2.49-1-5.19-2.1L183.23,306c-1.81-.71-3.54-1.4-5.23-2s-3.21-1.21-4.6-1.69l-65-23.25L87,291.45,127.16,329l2.84,2.6c1,1,2.14,2,3.3,3s2.34,2.1,3.52,3.18,2.35,2.1,3.48,3.1l8.19,7.17-2.79,1.6c-3-1.17-6.11-2.38-9.33-3.6-2.82-1-6.07-2.24-9.65-3.6s-7.24-2.71-11-4.05L48.52,313.65,30,324.33l123.05,42.16L176,353.26,132.3,312.37c-.64-.65-1.35-1.32-2.14-2s-1.71-1.53-2.63-2.37-1.82-1.65-2.78-2.48-1.92-1.67-2.82-2.48c-2.12-1.83-4.33-3.73-6.61-5.65l2.85-1.6c3.21,1.38,6.41,2.68,9.49,3.87,2.71,1.08,5.55,2.18,8.46,3.29s5.46,2.06,7.62,2.83l70.53,25.39,22.92-13.23-72.31-71.45" transform="translate(0 -16.85)" style="fill:#21e0a3"/><path d="M208.33,313.49q-3.14-2.82-6.48-5.84c-1.92-1.73-4-3.64-6.19-5.67s-4.39-4.11-6.42-6.07l-42.86-38.76,18.5-10.68,72.31,71.45-22.92,13.23-70.53-25.39c-2.16-.77-4.72-1.72-7.62-2.83s-5.75-2.21-8.46-3.29c-3.08-1.19-6.28-2.49-9.49-3.87l-2.85,1.6c2.28,1.92,4.49,3.82,6.61,5.65.9.81,1.85,1.63,2.82,2.48s1.9,1.67,2.78,2.48,1.79,1.62,2.63,2.37,1.5,1.37,2.14,2L176,353.26l-22.91,13.23L30,324.33l18.51-10.68,67.24,24.72c3.72,1.34,7.41,2.7,11,4.05s6.83,2.57,9.65,3.6c3.22,1.22,6.36,2.43,9.33,3.6l2.79-1.6-8.19-7.17c-1.13-1-2.29-2-3.48-3.1s-2.36-2.14-3.52-3.18-2.26-2-3.3-3l-2.84-2.6L87,291.45l21.46-12.39,65,23.25c1.39.48,2.94,1.05,4.6,1.69s3.42,1.33,5.23,2l5.28,2.08q2.7,1.06,5.19,2.1l11.78,4.85,2.85-1.58m-42.6-70.78-24.45,14.12,44.56,40.31c2,1.94,4.18,4,6.43,6.07s4.28,4,6.2,5.69l.88.8L196,308.33q-2.52-1.05-5.26-2.13l-5.28-2.07c-1.81-.73-3.57-1.41-5.27-2.06s-3.31-1.25-4.74-1.75l-67.63-24.19-25.95,15,41.86,39.1q1.29,1.16,2.85,2.61t3.33,3l3.51,3.16c1.2,1.09,2.36,2.13,3.51,3.13l2.72,2.38-1.14-.44c-2.82-1-6-2.24-9.62-3.59s-7.29-2.73-11-4.07L48,310.7,23.54,324.81,153.68,369.4,181,353.6l-45.29-42.41c-.64-.66-1.4-1.38-2.25-2.12s-1.68-1.5-2.57-2.33-1.87-1.68-2.85-2.53l-2.81-2.46-.5-.44.64.25c2.71,1.07,5.57,2.19,8.5,3.31s5.54,2.08,7.72,2.86l73.21,26.35,27.36-15.79-76.47-75.58" transform="translate(0 -16.85)" style="fill:#022b3a"/><path d="M309.21,262.08A53.79,53.79,0,0,1,293,268.2a65.36,65.36,0,0,1-17.52,1.13,74.11,74.11,0,0,1-17.6-3.41,84.82,84.82,0,0,1-16.73-7.45,56.67,56.67,0,0,1-12.77-9.65c-3.13-3.31-5-6.69-5.59-10a13.48,13.48,0,0,1,2.4-10c2.16-3.23,5.84-6.36,11-9.32a55.54,55.54,0,0,1,15.92-6.19A62.57,62.57,0,0,1,269.27,212a72.17,72.17,0,0,1,17.34,3.24,83.18,83.18,0,0,1,16.67,7.42,63.11,63.11,0,0,1,12.82,9.49c3.31,3.32,5.39,6.71,6.17,10.07a13.31,13.31,0,0,1-1.9,10.18c-2,3.35-5.8,6.61-11.16,9.71m-86.76-50.59c-8,4.64-14,9.47-17.85,14.38s-5.67,9.83-5.56,14.72,2.16,9.8,6.12,14.59,9.89,9.52,17.54,14a105.73,105.73,0,0,0,23.59,10.08,98.58,98.58,0,0,0,51.18,1.15,96.37,96.37,0,0,0,25.47-10.32c7.78-4.49,13.62-9.27,17.38-14.22s5.55-10,5.4-15-2.24-10-6.18-15-9.84-9.69-17.49-14.14a101.75,101.75,0,0,0-24-10.11,97.46,97.46,0,0,0-50.71-.45,99.51,99.51,0,0,0-24.91,10.27" transform="translate(0 -16.85)" style="fill:#21e0a3"/><path d="M306.39,260.44A48.79,48.79,0,0,1,291.72,266,58.55,58.55,0,0,1,276,267a69,69,0,0,1-16.15-3.13A80.28,80.28,0,0,1,244,256.83a53.7,53.7,0,0,1-12.1-9.13c-2.87-3-4.59-6.12-5.12-9.16a12,12,0,0,1,2.15-8.92c1.95-2.93,5.33-5.79,10-8.51a50.47,50.47,0,0,1,14.51-5.66,56.07,56.07,0,0,1,15.33-1.18,66.26,66.26,0,0,1,15.85,3,78.09,78.09,0,0,1,15.75,7,60.35,60.35,0,0,1,12.2,9c3.05,3.05,5,6.15,5.67,9.22a11.91,11.91,0,0,1-1.71,9.1c-1.84,3-5.28,6-10.21,8.83m-70.2-41c-5.12,3-8.8,6.09-11,9.32a13.48,13.48,0,0,0-2.4,10c.58,3.35,2.46,6.73,5.59,10a56.67,56.67,0,0,0,12.77,9.65,84.82,84.82,0,0,0,16.73,7.45,74.11,74.11,0,0,0,17.6,3.41A65.36,65.36,0,0,0,293,268.2a53.79,53.79,0,0,0,16.17-6.12c5.36-3.1,9.12-6.36,11.16-9.71a13.31,13.31,0,0,0,1.9-10.18c-.78-3.36-2.86-6.75-6.17-10.07a63.11,63.11,0,0,0-12.82-9.49,83.18,83.18,0,0,0-16.67-7.42A72.17,72.17,0,0,0,269.27,212a62.57,62.57,0,0,0-17.16,1.31,55.54,55.54,0,0,0-15.92,6.19m86.75,50.59a96.37,96.37,0,0,1-25.47,10.32,98.58,98.58,0,0,1-51.18-1.15,105.73,105.73,0,0,1-23.59-10.08c-7.65-4.45-13.56-9.15-17.54-14s-6-9.7-6.12-14.59,1.76-9.84,5.56-14.72,9.83-9.74,17.85-14.38a99.51,99.51,0,0,1,24.91-10.27,97.46,97.46,0,0,1,50.71.45,101.75,101.75,0,0,1,24,10.11c7.65,4.45,13.53,9.21,17.49,14.14s6,10,6.18,15-1.67,10-5.4,15-9.6,9.73-17.38,14.22M219.63,209.85c-8.37,4.83-14.65,9.9-18.68,15.07s-6,10.47-5.91,15.71,2.3,10.46,6.52,15.55,10.33,10,18.3,14.61a110.56,110.56,0,0,0,24.62,10.52A105.56,105.56,0,0,0,299,282.52a101,101,0,0,0,26.76-10.82C333.89,267,340,262,344,256.77s5.9-10.59,5.73-15.93-2.36-10.69-6.54-15.9-10.31-10.16-18.28-14.79A105.63,105.63,0,0,0,273,195.77a104.09,104.09,0,0,0-53.32,14.08" transform="translate(0 -16.85)" style="fill:#022b3a"/><path d="M356.88,188.93,324.38,170l28.56-16.49a45,45,0,0,1,18.52-6.24,29.2,29.2,0,0,1,17.47,3.88,18.42,18.42,0,0,1,5.47,4.53,7.71,7.71,0,0,1,1.72,5.2,9.49,9.49,0,0,1-2.68,5.54,30,30,0,0,1-7.42,5.65l-29.14,16.82m-15.23-44.52-49.13,28.37,97.71,56.78L408.57,219,370.4,196.79l27.06-15.63,61.66,8.63L479.57,178l-68.78-8.65,1.48-1.39a20.88,20.88,0,0,0,5.06-6.9,12.58,12.58,0,0,0,.93-7.24,15.62,15.62,0,0,0-3.47-7.15,29.57,29.57,0,0,0-8.23-6.64,52.19,52.19,0,0,0-14.12-5.63,54.16,54.16,0,0,0-15.54-1.31,70.83,70.83,0,0,0-17.06,3.2,91.23,91.23,0,0,0-18.19,8.14" transform="translate(0 -16.85)" style="fill:#21e0a3"/><path d="M356.9,185.65,330,170l25.72-14.85A39.73,39.73,0,0,1,372,149.61a23.16,23.16,0,0,1,14.06,3.21,15.79,15.79,0,0,1,4.64,3.84,6.18,6.18,0,0,1,1.38,4.18,7.81,7.81,0,0,1-2.25,4.57,26.49,26.49,0,0,1-6.67,5.06l-26.3,15.18m-4-32.1L324.38,170l32.5,18.89L386,172.11a30,30,0,0,0,7.42-5.65,9.49,9.49,0,0,0,2.68-5.54,7.71,7.71,0,0,0-1.72-5.2,18.42,18.42,0,0,0-5.47-4.53,29.2,29.2,0,0,0-17.47-3.88,45,45,0,0,0-18.52,6.24m37.29,76-97.71-56.78,49.13-28.37a91.23,91.23,0,0,1,18.19-8.14,70.83,70.83,0,0,1,17.06-3.2,54.16,54.16,0,0,1,15.54,1.31A52.19,52.19,0,0,1,406.56,140a29.57,29.57,0,0,1,8.23,6.64,15.62,15.62,0,0,1,3.47,7.15,12.58,12.58,0,0,1-.93,7.24,20.88,20.88,0,0,1-5.06,6.9l-1.48,1.39L479.57,178l-20.45,11.81-61.66-8.63L370.4,196.79,408.57,219l-18.34,10.59m-51.39-86.79-52,30L390.2,232.84l24-13.87-38.17-22.18,22.63-13.07,61.65,8.62,27.24-15.73-70.5-8.86a21.41,21.41,0,0,0,4.13-6.16,13.94,13.94,0,0,0,1-8,17.17,17.17,0,0,0-3.83-7.89,32.42,32.42,0,0,0-9-7.3A57,57,0,0,0,394,132.23a61.08,61.08,0,0,0-17.43-1.47A77,77,0,0,0,358,134.24a95,95,0,0,0-19.12,8.53" transform="translate(0 -16.85)" style="fill:#022b3a"/><polyline points="417.07 84.01 398.73 94.6 496.44 151.38 569.08 109.44 555.63 101.63 501.34 132.98 417.07 84.01" style="fill:#21e0a3"/><path d="M496.44,168.24l-97.71-56.79,18.34-10.59,84.27,49,54.29-31.35,13.45,7.82-72.64,41.94M417.1,97.59l-24,13.87,103.35,60.05,78.31-45.21-19.09-11.09-54.28,31.34-84.26-49" transform="translate(0 -16.85)" style="fill:#022b3a"/><path d="M591.18,98,520.37,56.81l16.42-9.49a73,73,0,0,1,15.68-6.74A64.39,64.39,0,0,1,569.58,38a66.76,66.76,0,0,1,17.91,2.21,72.74,72.74,0,0,1,18.06,7.6c5.84,3.39,10.27,6.88,13.17,10.37s4.55,7,4.82,10.37a14.2,14.2,0,0,1-2.95,9.78,32.09,32.09,0,0,1-10,8.48L591.18,98m-67.41-58.7-35.2,20.33,97.71,56.78,39.51-22.82c6.75-3.89,12.05-8.19,15.74-12.79s5.61-9.33,5.74-14.18-1.7-9.83-5.38-14.81S632.19,41.84,624,37.1a94.28,94.28,0,0,0-25.48-10.36A92.94,92.94,0,0,0,573,24.26a98.84,98.84,0,0,0-25.14,4.42,119.59,119.59,0,0,0-24.08,10.58" transform="translate(0 -16.85)" style="fill:#21e0a3"/><path d="M591.19,94.68,526,56.81,539.62,49a67.92,67.92,0,0,1,14.66-6.32,58.12,58.12,0,0,1,15.42-2.36,60.05,60.05,0,0,1,16.14,2,67.65,67.65,0,0,1,16.87,7.12c5.52,3.21,9.7,6.49,12.41,9.74s4.18,6.42,4.44,9.48a12.84,12.84,0,0,1-2.66,8.76,29.13,29.13,0,0,1-9.17,7.73l-16.54,9.55m-54.4-47.36-16.42,9.49L591.18,98l19.37-11.18a32.09,32.09,0,0,0,10-8.48,14.2,14.2,0,0,0,2.95-9.78c-.27-3.37-1.9-6.86-4.82-10.37s-7.33-7-13.17-10.37a72.74,72.74,0,0,0-18.06-7.6A66.76,66.76,0,0,0,569.58,38a64.39,64.39,0,0,0-17.11,2.61,73,73,0,0,0-15.68,6.74m49.49,69.05L488.57,59.59l35.2-20.33a119.59,119.59,0,0,1,24.08-10.58A98.84,98.84,0,0,1,573,24.26a92.94,92.94,0,0,1,25.57,2.48A94.28,94.28,0,0,1,624,37.1c8.15,4.74,14.16,9.68,17.85,14.67s5.49,10,5.38,14.81-2,9.62-5.74,14.18-9,8.9-15.74,12.79l-39.51,22.82M521,37.62l-38.05,22,103.34,60.05,42.36-24.45c7.07-4.08,12.65-8.61,16.55-13.45s6-10,6.1-15.13-1.78-10.47-5.69-15.76-10.19-10.44-18.7-15.38A98,98,0,0,0,572.7,22,105.12,105.12,0,0,0,546,26.64a124.14,124.14,0,0,0-25,11" transform="translate(0 -16.85)" style="fill:#022b3a"/></g></g><g style="isolation:isolate"><g style="clip-path:url(#clip-path-10)"><path d="M164.88,241.47l-18.5,10.68,42.86,38.76c2,2,4.19,4,6.42,6.07s4.27,3.94,6.19,5.67q3.35,3,6.48,5.84l-2.85,1.58-11.78-4.85q-2.49-1-5.19-2.1L183.23,301c-1.81-.71-3.54-1.4-5.23-2s-3.21-1.21-4.6-1.69l-65-23.25L87,286.45,127.16,324l2.84,2.6c1,1,2.14,2,3.3,3s2.34,2.1,3.52,3.18,2.35,2.1,3.48,3.1l8.19,7.17-2.79,1.6c-3-1.17-6.11-2.38-9.33-3.6-2.82-1-6.07-2.24-9.65-3.6s-7.24-2.71-11-4.05L48.52,308.65,30,319.33l123.05,42.16L176,348.26,132.3,307.37c-.64-.65-1.35-1.32-2.14-2s-1.71-1.53-2.63-2.37-1.82-1.65-2.78-2.48-1.92-1.67-2.82-2.48c-2.12-1.83-4.33-3.73-6.61-5.65l2.85-1.6c3.21,1.38,6.41,2.68,9.49,3.87,2.71,1.08,5.55,2.18,8.46,3.29s5.46,2.06,7.62,2.83l70.53,25.39,22.92-13.23-72.31-71.45" transform="translate(0 -16.85)" style="fill:#21e0a3"/><path d="M208.33,308.49q-3.14-2.82-6.48-5.84c-1.92-1.73-4-3.64-6.19-5.67s-4.39-4.11-6.42-6.07l-42.86-38.76,18.5-10.68,72.31,71.45-22.92,13.23-70.53-25.39c-2.16-.77-4.72-1.72-7.62-2.83s-5.75-2.21-8.46-3.29c-3.08-1.19-6.28-2.49-9.49-3.87l-2.85,1.6c2.28,1.92,4.49,3.82,6.61,5.65.9.81,1.85,1.63,2.82,2.48s1.9,1.67,2.78,2.48,1.79,1.62,2.63,2.37,1.5,1.37,2.14,2L176,348.26l-22.91,13.23L30,319.33l18.51-10.68,67.24,24.72c3.72,1.34,7.41,2.7,11,4.05s6.83,2.57,9.65,3.6c3.22,1.22,6.36,2.43,9.33,3.6l2.79-1.6-8.19-7.17c-1.13-1-2.29-2-3.48-3.1s-2.36-2.14-3.52-3.18-2.26-2-3.3-3l-2.84-2.6L87,286.45l21.46-12.39,65,23.25c1.39.48,2.94,1.05,4.6,1.69s3.42,1.33,5.23,2l5.28,2.08q2.7,1.06,5.19,2.1l11.78,4.85,2.85-1.58m-42.6-70.78-24.45,14.12,44.56,40.31c2,1.94,4.18,4,6.43,6.07s4.28,4,6.2,5.69l.88.8L196,303.33q-2.52-1.05-5.26-2.13l-5.28-2.07c-1.81-.73-3.57-1.41-5.27-2.06s-3.31-1.25-4.74-1.75l-67.63-24.19-25.95,15,41.86,39.1q1.29,1.16,2.85,2.61t3.33,3l3.51,3.16c1.2,1.09,2.36,2.13,3.51,3.13l2.72,2.38-1.14-.44c-2.82-1-6-2.24-9.62-3.59s-7.29-2.73-11-4.07L48,305.7,23.54,319.81,153.68,364.4,181,348.6l-45.29-42.41c-.64-.66-1.4-1.38-2.25-2.12s-1.68-1.5-2.57-2.33-1.87-1.68-2.85-2.53l-2.81-2.46-.5-.44.64.25c2.71,1.07,5.57,2.19,8.5,3.31s5.54,2.08,7.72,2.86l73.21,26.35,27.36-15.79-76.47-75.58" transform="translate(0 -16.85)" style="fill:#022b3a"/><path d="M309.21,257.08A53.79,53.79,0,0,1,293,263.2a65.36,65.36,0,0,1-17.52,1.13,74.11,74.11,0,0,1-17.6-3.41,84.82,84.82,0,0,1-16.73-7.45,56.67,56.67,0,0,1-12.77-9.65c-3.13-3.31-5-6.69-5.59-10a13.48,13.48,0,0,1,2.4-10c2.16-3.23,5.84-6.36,11-9.32a55.54,55.54,0,0,1,15.92-6.19A62.57,62.57,0,0,1,269.27,207a72.17,72.17,0,0,1,17.34,3.24,83.18,83.18,0,0,1,16.67,7.42,63.11,63.11,0,0,1,12.82,9.49c3.31,3.32,5.39,6.71,6.17,10.07a13.31,13.31,0,0,1-1.9,10.18c-2,3.35-5.8,6.61-11.16,9.71m-86.76-50.59c-8,4.64-14,9.47-17.85,14.38s-5.67,9.83-5.56,14.72,2.16,9.8,6.12,14.59,9.89,9.52,17.54,14a105.73,105.73,0,0,0,23.59,10.08,98.58,98.58,0,0,0,51.18,1.15,96.37,96.37,0,0,0,25.47-10.32c7.78-4.49,13.62-9.27,17.38-14.22s5.55-10,5.4-15-2.24-10-6.18-15-9.84-9.69-17.49-14.14a101.75,101.75,0,0,0-24-10.11,97.46,97.46,0,0,0-50.71-.45,99.51,99.51,0,0,0-24.91,10.27" transform="translate(0 -16.85)" style="fill:#21e0a3"/><path d="M306.39,255.44A48.79,48.79,0,0,1,291.72,261,58.55,58.55,0,0,1,276,262a69,69,0,0,1-16.15-3.13A80.28,80.28,0,0,1,244,251.83a53.7,53.7,0,0,1-12.1-9.13c-2.87-3-4.59-6.12-5.12-9.16a12,12,0,0,1,2.15-8.92c1.95-2.93,5.33-5.79,10-8.51a50.47,50.47,0,0,1,14.51-5.66,56.07,56.07,0,0,1,15.33-1.18,66.26,66.26,0,0,1,15.85,3,78.09,78.09,0,0,1,15.75,7,60.35,60.35,0,0,1,12.2,9c3.05,3.05,5,6.15,5.67,9.22a11.91,11.91,0,0,1-1.71,9.1c-1.84,3-5.28,6-10.21,8.83m-70.2-41c-5.12,3-8.8,6.09-11,9.32a13.48,13.48,0,0,0-2.4,10c.58,3.35,2.46,6.73,5.59,10a56.67,56.67,0,0,0,12.77,9.65,84.82,84.82,0,0,0,16.73,7.45,74.11,74.11,0,0,0,17.6,3.41A65.36,65.36,0,0,0,293,263.2a53.79,53.79,0,0,0,16.17-6.12c5.36-3.1,9.12-6.36,11.16-9.71a13.31,13.31,0,0,0,1.9-10.18c-.78-3.36-2.86-6.75-6.17-10.07a63.11,63.11,0,0,0-12.82-9.49,83.18,83.18,0,0,0-16.67-7.42A72.17,72.17,0,0,0,269.27,207a62.57,62.57,0,0,0-17.16,1.31,55.54,55.54,0,0,0-15.92,6.19m86.75,50.59a96.37,96.37,0,0,1-25.47,10.32,98.58,98.58,0,0,1-51.18-1.15,105.73,105.73,0,0,1-23.59-10.08c-7.65-4.45-13.56-9.15-17.54-14s-6-9.7-6.12-14.59,1.76-9.84,5.56-14.72,9.83-9.74,17.85-14.38a99.51,99.51,0,0,1,24.91-10.27,97.46,97.46,0,0,1,50.71.45,101.75,101.75,0,0,1,24,10.11c7.65,4.45,13.53,9.21,17.49,14.14s6,10,6.18,15-1.67,10-5.4,15-9.6,9.73-17.38,14.22M219.63,204.85c-8.37,4.83-14.65,9.9-18.68,15.07s-6,10.47-5.91,15.71,2.3,10.46,6.52,15.55,10.33,10,18.3,14.61a110.56,110.56,0,0,0,24.62,10.52A105.56,105.56,0,0,0,299,277.52a101,101,0,0,0,26.76-10.82C333.89,262,340,257,344,251.77s5.9-10.59,5.73-15.93-2.36-10.69-6.54-15.9-10.31-10.16-18.28-14.79A105.63,105.63,0,0,0,273,190.77a104.09,104.09,0,0,0-53.32,14.08" transform="translate(0 -16.85)" style="fill:#022b3a"/><path d="M356.88,183.93,324.38,165l28.56-16.49a45,45,0,0,1,18.52-6.24,29.2,29.2,0,0,1,17.47,3.88,18.42,18.42,0,0,1,5.47,4.53,7.71,7.71,0,0,1,1.72,5.2,9.49,9.49,0,0,1-2.68,5.54,30,30,0,0,1-7.42,5.65l-29.14,16.82m-15.23-44.52-49.13,28.37,97.71,56.78L408.57,214,370.4,191.79l27.06-15.63,61.66,8.63L479.57,173l-68.78-8.65,1.48-1.39a20.88,20.88,0,0,0,5.06-6.9,12.58,12.58,0,0,0,.93-7.24,15.62,15.62,0,0,0-3.47-7.15,29.57,29.57,0,0,0-8.23-6.64,52.19,52.19,0,0,0-14.12-5.63,54.16,54.16,0,0,0-15.54-1.31,70.83,70.83,0,0,0-17.06,3.2,91.23,91.23,0,0,0-18.19,8.14" transform="translate(0 -16.85)" style="fill:#21e0a3"/><path d="M356.9,180.65,330,165l25.72-14.85A39.73,39.73,0,0,1,372,144.61a23.16,23.16,0,0,1,14.06,3.21,15.79,15.79,0,0,1,4.64,3.84,6.18,6.18,0,0,1,1.38,4.18,7.81,7.81,0,0,1-2.25,4.57,26.49,26.49,0,0,1-6.67,5.06l-26.3,15.18m-4-32.1L324.38,165l32.5,18.89L386,167.11a30,30,0,0,0,7.42-5.65,9.49,9.49,0,0,0,2.68-5.54,7.71,7.71,0,0,0-1.72-5.2,18.42,18.42,0,0,0-5.47-4.53,29.2,29.2,0,0,0-17.47-3.88,45,45,0,0,0-18.52,6.24m37.29,76-97.71-56.78,49.13-28.37a91.23,91.23,0,0,1,18.19-8.14,70.83,70.83,0,0,1,17.06-3.2,54.16,54.16,0,0,1,15.54,1.31A52.19,52.19,0,0,1,406.56,135a29.57,29.57,0,0,1,8.23,6.64,15.62,15.62,0,0,1,3.47,7.15,12.58,12.58,0,0,1-.93,7.24,20.88,20.88,0,0,1-5.06,6.9l-1.48,1.39L479.57,173l-20.45,11.81-61.66-8.63L370.4,191.79,408.57,214l-18.34,10.59m-51.39-86.79-52,30L390.2,227.84l24-13.87-38.17-22.18,22.63-13.07,61.65,8.62,27.24-15.73-70.5-8.86a21.41,21.41,0,0,0,4.13-6.16,13.94,13.94,0,0,0,1-8,17.17,17.17,0,0,0-3.83-7.89,32.42,32.42,0,0,0-9-7.3A57,57,0,0,0,394,127.23a61.08,61.08,0,0,0-17.43-1.47A77,77,0,0,0,358,129.24a95,95,0,0,0-19.12,8.53" transform="translate(0 -16.85)" style="fill:#022b3a"/><polyline points="417.07 79.01 398.73 89.6 496.44 146.38 569.08 104.44 555.63 96.63 501.34 127.98 417.07 79.01" style="fill:#21e0a3"/><path d="M496.44,163.24l-97.71-56.79,18.34-10.59,84.27,49,54.29-31.35,13.45,7.82-72.64,41.94M417.1,92.59l-24,13.87,103.35,60.05,78.31-45.21-19.09-11.09-54.28,31.34-84.26-49" transform="translate(0 -16.85)" style="fill:#022b3a"/><path d="M591.18,93,520.37,51.81l16.42-9.49a73,73,0,0,1,15.68-6.74A64.39,64.39,0,0,1,569.58,33a66.76,66.76,0,0,1,17.91,2.21,72.74,72.74,0,0,1,18.06,7.6c5.84,3.39,10.27,6.88,13.17,10.37s4.55,7,4.82,10.37a14.2,14.2,0,0,1-2.95,9.78,32.09,32.09,0,0,1-10,8.48L591.18,93m-67.41-58.7-35.2,20.33,97.71,56.78,39.51-22.82c6.75-3.89,12.05-8.19,15.74-12.79s5.61-9.33,5.74-14.18-1.7-9.83-5.38-14.81S632.19,36.84,624,32.1a94.28,94.28,0,0,0-25.48-10.36A92.94,92.94,0,0,0,573,19.26a98.84,98.84,0,0,0-25.14,4.42,119.59,119.59,0,0,0-24.08,10.58" transform="translate(0 -16.85)" style="fill:#21e0a3"/><path d="M591.19,89.68,526,51.81,539.62,44a67.92,67.92,0,0,1,14.66-6.32,58.12,58.12,0,0,1,15.42-2.36,60.05,60.05,0,0,1,16.14,2,67.65,67.65,0,0,1,16.87,7.12c5.52,3.21,9.7,6.49,12.41,9.74s4.18,6.42,4.44,9.48a12.84,12.84,0,0,1-2.66,8.76,29.13,29.13,0,0,1-9.17,7.73l-16.54,9.55m-54.4-47.36-16.42,9.49L591.18,93l19.37-11.18a32.09,32.09,0,0,0,10-8.48,14.2,14.2,0,0,0,2.95-9.78c-.27-3.37-1.9-6.86-4.82-10.37s-7.33-7-13.17-10.37a72.74,72.74,0,0,0-18.06-7.6A66.76,66.76,0,0,0,569.58,33a64.39,64.39,0,0,0-17.11,2.61,73,73,0,0,0-15.68,6.74m49.49,69.05L488.57,54.59l35.2-20.33a119.59,119.59,0,0,1,24.08-10.58A98.84,98.84,0,0,1,573,19.26a92.94,92.94,0,0,1,25.57,2.48A94.28,94.28,0,0,1,624,32.1c8.15,4.74,14.16,9.68,17.85,14.67s5.49,10,5.38,14.81-2,9.62-5.74,14.18-9,8.9-15.74,12.79l-39.51,22.82M521,32.62l-38.05,22,103.34,60.05,42.36-24.45c7.07-4.08,12.65-8.61,16.55-13.45s6-10,6.1-15.13-1.78-10.47-5.69-15.76-10.19-10.44-18.7-15.38A98,98,0,0,0,572.7,17,105.12,105.12,0,0,0,546,21.64a124.14,124.14,0,0,0-25,11" transform="translate(0 -16.85)" style="fill:#022b3a"/></g></g></g></g></svg>