<svg width="18" height="18" viewBox="0 0 18 18" fill="none" xmlns="http://www.w3.org/2000/svg">
    <path d="M8.99998 14.16C9.01355 14.2735 9.001 14.3885 8.96331 14.4964C8.92561 14.6043 8.86376 14.7022 8.78248 14.7825C8.64195 14.9222 8.45187 15.0006 8.25373 15.0006C8.05559 15.0006 7.8655 14.9222 7.72498 14.7825L4.72498 11.7825C4.64127 11.7021 4.57739 11.6033 4.53834 11.494C4.4993 11.3847 4.48617 11.2678 4.49998 11.1525V7.3125L0.907476 2.715C0.785682 2.55865 0.730727 2.36044 0.754617 2.1637C0.778508 1.96695 0.879302 1.78766 1.03498 1.665C1.16693 1.55913 1.3308 1.50098 1.49998 1.5H12C12.1691 1.50098 12.333 1.55913 12.465 1.665C12.6207 1.78766 12.7214 1.96695 12.7453 2.1637C12.7692 2.36044 12.7143 2.55865 12.5925 2.715L8.99998 7.3125V14.16ZM2.99998 3L5.99998 6.795V10.935L7.49998 12.435V6.7875L10.5 3H2.99998ZM9.74998 12L13.5 15.75L17.25 12H9.74998Z" fill="white"/>
</svg>
