<svg id="Layer_1" enable-background="new 0 0 512 512" height="512" viewBox="0 0 512 512" width="512"
     xmlns="http://www.w3.org/2000/svg">
    <g>
        <g clip-rule="evenodd" fill-rule="evenodd">
            <path d="m106.001 70h299.998l-20-60h-259.998z" fill="#fff"/>
            <path d="m405.999 70h-299.998-20.001v60h20.001 299.998 20.001v-60z" fill="#e8d0c1"/>
            <path d="m405.999 130h-299.998l4.301 80.003h291.396z" fill="#f4e9e2"/>
            <path d="m401.698 210.003h-291.396-14.302l10 180h13.979 272.04 13.979l10-180zm-195.698 90c0-27.614 22.386-50 50-50s50 22.386 50 50-22.386 50-50 50-50-22.386-50-50z"
                  fill="#e8d0c1"/>
            <ellipse cx="256" cy="300.003" fill="#fff" rx="50" ry="50"
                     transform="matrix(.972 -.235 .235 .972 -63.276 68.486)"/>
            <path d="m392.02 390.003h-272.04l6.021 111.997h259.998z" fill="#f4e9e2"/>
            <ellipse cx="256" cy="300.003" fill="#ddb9a3" rx="20" ry="20"
                     transform="matrix(.974 -.228 .228 .974 -61.61 66.205)"/>
        </g>
        <g>
            <path d="m426 60h-12.793l-17.722-53.162c-1.361-4.084-5.182-6.838-9.486-6.838h-259.998c-4.304 0-8.126 2.754-9.487 6.838l-17.72 53.162h-12.794c-5.523 0-10 4.478-10 10v60c0 5.522 4.477 10 10 10h10.524l3.226 60.003h-3.75c-2.749 0-5.376 1.131-7.265 3.128-1.889 1.996-2.873 4.683-2.72 7.427l10 180c.294 5.299 4.677 9.445 9.985 9.445h4.501l5.513 102.534c.286 5.307 4.671 9.463 9.986 9.463h259.997c5.314 0 9.7-4.156 9.986-9.463l5.513-102.534h4.504c5.308 0 9.69-4.146 9.985-9.445l10-180c.152-2.744-.832-5.431-2.72-7.427-1.889-1.997-4.516-3.128-7.265-3.128h-3.75l3.226-60.003h10.524c5.523 0 10-4.478 10-10v-60c0-5.522-4.477-10-10-10zm-292.791-40h245.582l13.334 40h-272.249zm243.312 472h-241.042l-4.947-91.997h250.936zm20.019-111.997h-281.079l-8.89-160h298.857zm-4.319-180h-272.442l-3.226-60.003h278.894zm23.779-80.003h-320v-40h320z"
                  fill="#c68a65"/>
        </g>
    </g>
</svg>
