<svg preserveAspectRatio="none" width="375" height="812" viewBox="0 0 375 812" fill="none" xmlns="http://www.w3.org/2000/svg">
    <path d="M189.055 71.5C223.854 51.1 225.221 -5.33334 221.555 -31L44.5545 -66L-22.9455 -34C-49.6121 79 -99.7455 305.5 -86.9455 307.5C-70.9455 310 -1.44548 283 24.0545 267.5C49.5545 252 69.0545 202 77.0545 185.5C85.0545 169 145.555 97 189.055 71.5Z" fill="#673AB7"/>
    <g opacity="0.880441">
        <circle cx="141" cy="428" r="89" fill="#FFBC44"/>
        <path fill-rule="evenodd" clip-rule="evenodd" d="M-179 678.657L-54.67 451.379L33.6069 612.137L166.022 371L267.997 556.703L325.834 451.379L387 562.246V818H-179V678.657Z" fill="url(#paint0_linear)"/>
        <path fill-rule="evenodd" clip-rule="evenodd" d="M-56.9985 450.61L-55.6154 448.022L-54.854 446.598L-54.0927 448.022L33.4596 611.795L165.93 364L267.948 554.83L325.808 446.598L387 560.527L376.005 586.161L362.352 559.103L340.274 600.402L320.479 559.103L309.059 604.674L297.639 559.103L284.697 587.585L267.186 576.192L250.437 587.585L201.462 554.83L152.988 594.705L124.497 554.83L104.263 604.674L81.2051 600.402L58.5282 657.366L37.2256 683L7.67693 643.125L-24.6205 677.304L-43.1744 589.009L-67.2256 668.759L-78.2205 594.705L-110.518 650.246L-122.887 624.612L-139.379 641.701L-149 623.188" fill="white"/>
        <mask id="mask0" mask-type="alpha" maskUnits="userSpaceOnUse" x="-149" y="371" width="536" height="312">
            <path fill-rule="evenodd" clip-rule="evenodd" d="M-56.8135 455.642L-55.431 453.114L-54.67 451.722L-53.909 453.114L33.6069 613.166L166.022 371L267.997 557.496L325.834 451.722L387 563.063L376.01 588.114L362.362 561.671L340.293 602.032L320.507 561.671L309.092 606.207L297.677 561.671L284.739 589.506L267.236 578.372L250.494 589.506L201.539 557.496L153.085 596.465L124.607 557.496L104.381 606.207L81.3325 602.032L58.6651 657.702L37.3714 682.754L7.83495 643.785L-24.449 677.187L-42.9951 590.898L-67.0364 668.836L-78.0267 596.465L-110.311 650.743L-122.675 625.692L-139.16 642.393L-148.777 624.3" fill="white"/>
        </mask>
        <g mask="url(#mask0)">
        </g>
    </g>
    <defs>
        <linearGradient id="paint0_linear" x1="104" y1="427.5" x2="104" y2="929" gradientUnits="userSpaceOnUse">
            <stop stop-color="#F5F5F5"/>
            <stop offset="0.755208" stop-color="#D8D8D8"/>
        </linearGradient>
    </defs>
</svg>
