<svg id="Layer_1" data-name="Layer 1" xmlns="http://www.w3.org/2000/svg" xmlns:xlink="http://www.w3.org/1999/xlink" viewBox="0 0 1462.81 1560.12"><defs><clipPath id="clip-path" transform="translate(64.37 172.05)"><rect x="-0.31" y="-0.35" width="1280" height="1280" rx="345.42" style="fill:none"/></clipPath></defs><title>fitworld-icon</title><rect x="64.06" y="171.7" width="1280" height="1280" rx="345.42" style="fill:#29abe2"/><g style="clip-path:url(#clip-path)"><path d="M68,24C196.76,0,292.71,43.14,306,98c6.78,28-39.72,48.71-35,92,5.36,49.24,67,64.58,62,94-.89,5.26-6.41,25.7-109,48-108.65,23.61-163,35.42-204,6-51.57-37-56.45-110.1-57-135" transform="translate(64.37 172.05)" style="fill:#39b54a"/><path d="M1211,48c-68.06-25.78-173.87,52.94-169,96,3.34,29.55,57.81,33.29,77,85,9.91,26.7,15.31,66.13-2,79-24.17,18-65.74-35.11-137-48-99.13-17.94-215.69,49.13-216,101-.29,47.65,97.71,48,124,124,31.07,89.85-71.73,187.92-42,217,29.11,28.47,130.49-43.59,167-6,20.66,21.27,4.53,61.64,21,68,22.7,8.77,59-65.75,96-57,9.73,2.3,8.06,7.65,37,29,20.52,15.13,32.28,25.12,45,27,39.83,5.89,72.59-29,82-39,51.19-54.49,28.6-150.41,5-287C1247.39,138.35,1264.39,68.22,1211,48Z" transform="translate(64.37 172.05)" style="fill:#39b54a"/><path d="M1081,1059c8.17-5.8,30.5-22.15,40-52,12.11-38.07-5-72-11-84-11.5-22.86-27-36.48-34.58-43,0,0-21.62-18.63-50.42-29-57.06-20.56-136.9-4.12-159.3,0-161.21,29.65-229.18-48.39-279,0-39.15,38-41.48,129.23,0,169.18,81.3,78.28,323.37-47.66,346.37,0,5.73,11.85-8,22.25,0,37.88C949.29,1089.69,1030.19,1095.11,1081,1059Z" transform="translate(64.37 172.05)" style="fill:#39b54a"/><path d="M40,1134c80.07,79.21,191.43,104.34,281,90,11.25-1.8,139.32-23.62,152-90,4.58-24-7.63-44.81-23-71-36.13-61.58-72.78-65.17-118.66-118.66C311.24,920.91,255.23,855.61,272,803c18.86-59.19,113.81-52,120-93,7.6-50.28-122.49-145.7-201-113-80.43,33.5-56.51,180.59-166,231-36.59,16.85-53.06,6.77-71,27C-93.11,908.12-44.28,1050.63,40,1134Z" transform="translate(64.37 172.05)" style="fill:#39b54a"/><path d="M920-121c15.85,25-.69,63.39-19,108-12,29.29-26.21,63.86-58,84-37.08,23.49-70.38,9.79-122,9-128.4-2-166.61,83.56-223,57-94.24-44.39-114.2-253.43-46-301,31-21.62,58.21,5.45,161,21C791.6-116,888.48-170.62,920-121Z" transform="translate(64.37 172.05)" style="fill:#fff"/><path d="M890,1328c-1.71-1.89-3.27-4.33-3-7,2-20,102-9.88,109-34,6.67-23.15-70-86.46-136-73-37.77,7.7-40.79,34.16-77,36-47.66,2.42-63.25-42.36-106-35-31.26,5.38-36,31.57-67,31-23.43-.43-27.22-15.55-55-23-30.41-8.16-68.07-1.36-94,19-34.94,27.44-52.26,82.41-36.85,111.85,36.18,69.07,261.59,14.65,319.08,0" transform="translate(64.37 172.05)" style="fill:#fff"/><path d="M555,63c36.57,8.13,49.56-23.84,94-26,35.4-1.72,40,18,82,16,12.34-.57,52.36-2.43,63-25,11-23.33-14.34-58.3-34-76-54.12-48.73-157.46-49.69-209,2-20.65,20.72-44.15,61.08-30,87C530,57.43,550.81,62.07,555,63Z" transform="translate(64.37 172.05)" style="fill:#dbdbdb"/><path d="M466,1323c-4-18.69,16.81-45.88,39-55,14.92-6.13,23.59-1.28,50,1,59.25,5.1,70.14-14.62,110-5,29.76,7.19,27.85,24.65,60,31a110,110,0,0,0,55-3c20.94-6.84,19.53-14,46-27,13.73-6.77,40.06-19.34,71-15,9.2,1.29,27.49,3.86,30,13,4.15,15.09-37,39.08-50,46C768.1,1367.11,479.27,1385,466,1323Z" transform="translate(64.37 172.05)" style="fill:#dbdbdb"/><path d="M884,428c-26.11-13.14-23.85-30.69-48-43-19.39-9.89-49.26-13.06-60.3,0-14.45,17.09,3.4,61.89,29.3,88,18.45,18.59,31.44,18.09,35,32,7,27.28-38,48.49-31,70,5.43,16.62,37.48,19.79,70,23,34.93,3.45,65.35,6.45,79-11,12.09-15.47-2.75-29.4,8-54,13.34-30.54,43.65-26.07,54-52,12.48-31.27-15-79.26-37-80-16.51-.56-19.33,26-48,34C911.17,441.68,888.48,430.26,884,428Z" transform="translate(64.37 172.05)" style="fill:#009245"/><path d="M1249,352c-59.84,65.16-89.58,98.31-81,126,8,25.91,41.52,38.64,53,43,37.49,14.24,54.69-2,79,12,36.26,20.94,27.3,74.1,43,76,20.44,2.47,66.41-83.85,53-174.16C1387.25,375.46,1351,302,1310,302,1302.89,302,1292.88,304.22,1249,352Z" transform="translate(64.37 172.05)" style="fill:#009245"/><path d="M215,211c-3.9-28.36-62.85-53.12-102-33-29.39,15.1-43.83,53.53-36,61,11.9,11.36,80.93-43.5,85-38,3.27,4.42-43.83,36.34-37,53,4.26,10.4,28.07,11.22,44,7C193.75,254.44,217.73,230.85,215,211Z" transform="translate(64.37 172.05)" style="fill:#009245"/><path d="M272,1022c-32.75-81.27-14.78-110.48-41-130-35.94-26.76-110.46-2.25-116,25-3.25,16,19.69,21.24,40,60,22.9,43.7,7.93,64.14,29,87,28.32,30.73,90.35,31.73,103,11C293.41,1064.5,284.43,1052.86,272,1022Z" transform="translate(64.37 172.05)" style="fill:#009245"/><path d="M1049,1023c7-11.22-18.18-29-11-49,5.4-15.1,23.6-16.07,23-25-.71-10.65-27.19-17.83-46-19-9-.56-34-2.11-39,9-4.32,9.59,11.43,17.18,17,43,4.09,19-2.26,24.84,4,34C1008.13,1032.29,1042.15,1034.07,1049,1023Z" transform="translate(64.37 172.05)" style="fill:#009245"/></g><rect x="431.57" y="533.19" width="544.97" height="557.02" rx="89.33" style="fill:#012837"/><path d="M583.39,520.15V629.49H764.2v57.18H583.39V816.33h-74V463H770v57.18Z" transform="translate(64.37 172.05)" style="fill:#fff"/></svg>